<svg xmlns="http://www.w3.org/2000/svg" xmlns:xlink="http://www.w3.org/1999/xlink" width="1280" zoomAndPan="magnify" viewBox="0 0 960 540.000001" height="720" preserveAspectRatio="xMidYMid meet" version="1.0"><defs><g/><clipPath id="88bdc3558e"><path d="M 0.886719 0 L 959.113281 0 L 959.113281 539 L 0.886719 539 Z M 0.886719 0 " clip-rule="nonzero"/></clipPath><clipPath id="3509ac0352"><path d="M 265.558594 238.382812 L 323.203125 238.382812 L 323.203125 300.519531 L 265.558594 300.519531 Z M 265.558594 238.382812 " clip-rule="nonzero"/></clipPath><clipPath id="7967dc6226"><path d="M 631.8125 238.382812 L 694.695312 238.382812 L 694.695312 300.519531 L 631.8125 300.519531 Z M 631.8125 238.382812 " clip-rule="nonzero"/></clipPath></defs><g clip-path="url(#88bdc3558e)"><path fill="#ffffff" d="M 0.886719 0 L 959.113281 0 L 959.113281 546.488281 L 0.886719 546.488281 Z M 0.886719 0 " fill-opacity="1" fill-rule="nonzero"/><path fill="#ffffff" d="M 0.886719 0 L 959.113281 0 L 959.113281 539 L 0.886719 539 Z M 0.886719 0 " fill-opacity="1" fill-rule="nonzero"/><path fill="#737373" d="M 0.886719 0 L 959.113281 0 L 959.113281 539 L 0.886719 539 Z M 0.886719 0 " fill-opacity="1" fill-rule="nonzero"/></g><g clip-path="url(#3509ac0352)"><path fill="#545454" d="M 296.597656 298.300781 L 296.597656 240.601562 C 296.597656 239.378906 295.605469 238.382812 294.382812 238.382812 C 293.160156 238.382812 292.167969 239.378906 292.167969 240.601562 L 292.167969 298.300781 C 292.167969 299.523438 293.160156 300.519531 294.382812 300.519531 C 295.605469 300.519531 296.597656 299.523438 296.597656 298.300781 Z M 305.460938 287.203125 L 305.460938 251.699219 C 305.460938 250.472656 304.46875 249.480469 303.246094 249.480469 C 302.023438 249.480469 301.027344 250.472656 301.027344 251.699219 L 301.027344 287.203125 C 301.027344 288.429688 302.023438 289.421875 303.246094 289.421875 C 304.46875 289.421875 305.460938 288.429688 305.460938 287.203125 Z M 287.734375 287.203125 L 287.734375 251.699219 C 287.734375 250.472656 286.742188 249.480469 285.519531 249.480469 C 284.296875 249.480469 283.304688 250.472656 283.304688 251.699219 L 283.304688 287.203125 C 283.304688 288.429688 284.296875 289.421875 285.519531 289.421875 C 286.742188 289.421875 287.734375 288.429688 287.734375 287.203125 Z M 314.324219 280.546875 L 314.324219 258.355469 C 314.324219 257.128906 313.332031 256.136719 312.109375 256.136719 C 310.882812 256.136719 309.890625 257.128906 309.890625 258.355469 L 309.890625 280.546875 C 309.890625 281.769531 310.882812 282.765625 312.109375 282.765625 C 313.332031 282.765625 314.324219 281.769531 314.324219 280.546875 Z M 278.871094 280.546875 L 278.871094 258.355469 C 278.871094 257.128906 277.878906 256.136719 276.65625 256.136719 C 275.433594 256.136719 274.441406 257.128906 274.441406 258.355469 L 274.441406 280.546875 C 274.441406 281.769531 275.433594 282.765625 276.65625 282.765625 C 277.878906 282.765625 278.871094 281.769531 278.871094 280.546875 Z M 270.007812 276.109375 L 270.007812 262.792969 C 270.007812 261.570312 269.015625 260.574219 267.792969 260.574219 C 266.570312 260.574219 265.578125 261.570312 265.578125 262.792969 L 265.578125 276.109375 C 265.578125 277.332031 266.570312 278.328125 267.792969 278.328125 C 269.015625 278.328125 270.007812 277.332031 270.007812 276.109375 Z M 323.1875 276.109375 L 323.1875 262.792969 C 323.1875 261.570312 322.191406 260.574219 320.96875 260.574219 C 319.746094 260.574219 318.753906 261.570312 318.753906 262.792969 L 318.753906 276.109375 C 318.753906 277.332031 319.746094 278.328125 320.96875 278.328125 C 322.191406 278.328125 323.1875 277.332031 323.1875 276.109375 Z M 323.1875 276.109375 " fill-opacity="1" fill-rule="evenodd"/></g><g fill="#545454" fill-opacity="1"><g transform="translate(333.257142, 290.087809)"><g><path d="M 22.015625 0.625 C 19.242188 0.625 16.660156 0.125 14.265625 -0.875 C 11.878906 -1.882812 9.785156 -3.285156 7.984375 -5.078125 C 6.191406 -6.878906 4.789062 -8.988281 3.78125 -11.40625 C 2.78125 -13.832031 2.28125 -16.484375 2.28125 -19.359375 C 2.28125 -22.234375 2.765625 -24.890625 3.734375 -27.328125 C 4.703125 -29.765625 6.066406 -31.875 7.828125 -33.65625 C 9.597656 -35.4375 11.664062 -36.820312 14.03125 -37.8125 C 16.40625 -38.800781 18.992188 -39.296875 21.796875 -39.296875 C 24.597656 -39.296875 27.113281 -38.828125 29.34375 -37.890625 C 31.582031 -36.953125 33.476562 -35.703125 35.03125 -34.140625 C 36.59375 -32.585938 37.703125 -30.863281 38.359375 -28.96875 L 31.25 -25.53125 C 30.59375 -27.40625 29.441406 -28.957031 27.796875 -30.1875 C 26.148438 -31.414062 24.148438 -32.03125 21.796875 -32.03125 C 19.515625 -32.03125 17.507812 -31.492188 15.78125 -30.421875 C 14.050781 -29.347656 12.707031 -27.867188 11.75 -25.984375 C 10.800781 -24.097656 10.328125 -21.890625 10.328125 -19.359375 C 10.328125 -16.835938 10.828125 -14.625 11.828125 -12.71875 C 12.835938 -10.8125 14.210938 -9.320312 15.953125 -8.25 C 17.703125 -7.175781 19.722656 -6.640625 22.015625 -6.640625 C 23.773438 -6.640625 25.425781 -6.976562 26.96875 -7.65625 C 28.507812 -8.332031 29.753906 -9.3125 30.703125 -10.59375 C 31.648438 -11.875 32.125 -13.410156 32.125 -15.203125 L 32.125 -18.421875 L 35.8125 -15.3125 L 21.796875 -15.3125 L 21.796875 -22.0625 L 40.171875 -22.0625 L 40.171875 -17.953125 C 40.171875 -14.804688 39.648438 -12.066406 38.609375 -9.734375 C 37.578125 -7.398438 36.1875 -5.460938 34.4375 -3.921875 C 32.6875 -2.378906 30.726562 -1.234375 28.5625 -0.484375 C 26.40625 0.253906 24.222656 0.625 22.015625 0.625 Z M 22.015625 0.625 "/></g></g></g><g fill="#545454" fill-opacity="1"><g transform="translate(374.984688, 290.087809)"><g><path d="M 3.421875 0 L 3.421875 -38.671875 L 29.4375 -38.671875 L 29.4375 -31.65625 L 11.46875 -31.65625 L 11.46875 -22.890625 L 28.390625 -22.890625 L 28.390625 -15.890625 L 11.46875 -15.890625 L 11.46875 -7 L 29.4375 -7 L 29.4375 0 Z M 3.421875 0 "/></g></g></g><g fill="#545454" fill-opacity="1"><g transform="translate(405.553749, 290.087809)"><g><path d="M 3.421875 0 L 3.421875 -38.671875 L 9.609375 -38.671875 L 30.359375 -11.3125 L 27.046875 -10.53125 L 27.046875 -38.671875 L 35.09375 -38.671875 L 35.09375 0 L 28.859375 0 L 8.453125 -27.5625 L 11.46875 -28.34375 L 11.46875 0 Z M 3.421875 0 "/></g></g></g><g fill="#545454" fill-opacity="1"><g transform="translate(444.063499, 290.087809)"><g><path d="M 3.421875 0 L 3.421875 -38.671875 L 18.265625 -38.671875 C 20.929688 -38.671875 23.289062 -38.203125 25.34375 -37.265625 C 27.40625 -36.335938 29.023438 -34.953125 30.203125 -33.109375 C 31.378906 -31.273438 31.96875 -29.007812 31.96875 -26.3125 C 31.96875 -23.6875 31.367188 -21.457031 30.171875 -19.625 C 28.984375 -17.789062 27.359375 -16.394531 25.296875 -15.4375 C 23.242188 -14.488281 20.898438 -14.015625 18.265625 -14.015625 L 11.46875 -14.015625 L 11.46875 0 Z M 11.46875 -21.015625 L 18.328125 -21.015625 C 19.460938 -21.015625 20.445312 -21.238281 21.28125 -21.6875 C 22.113281 -22.144531 22.757812 -22.769531 23.21875 -23.5625 C 23.6875 -24.363281 23.921875 -25.28125 23.921875 -26.3125 C 23.921875 -27.382812 23.6875 -28.316406 23.21875 -29.109375 C 22.757812 -29.910156 22.113281 -30.535156 21.28125 -30.984375 C 20.445312 -31.429688 19.460938 -31.65625 18.328125 -31.65625 L 11.46875 -31.65625 Z M 11.46875 -21.015625 "/></g></g></g><g fill="#545454" fill-opacity="1"><g transform="translate(477.746556, 290.087809)"><g><path d="M 3.421875 0 L 3.421875 -38.671875 L 18.21875 -38.671875 C 20.882812 -38.671875 23.242188 -38.203125 25.296875 -37.265625 C 27.359375 -36.335938 28.976562 -34.953125 30.15625 -33.109375 C 31.332031 -31.273438 31.921875 -29.007812 31.921875 -26.3125 C 31.921875 -23.6875 31.3125 -21.445312 30.09375 -19.59375 C 28.882812 -17.738281 27.257812 -16.347656 25.21875 -15.421875 L 34.046875 0 L 25.015625 0 L 15.46875 -17.078125 L 20.65625 -14.015625 L 11.46875 -14.015625 L 11.46875 0 Z M 11.46875 -21.015625 L 18.265625 -21.015625 C 19.410156 -21.015625 20.394531 -21.238281 21.21875 -21.6875 C 22.050781 -22.144531 22.703125 -22.769531 23.171875 -23.5625 C 23.640625 -24.363281 23.875 -25.28125 23.875 -26.3125 C 23.875 -27.382812 23.640625 -28.316406 23.171875 -29.109375 C 22.703125 -29.910156 22.050781 -30.535156 21.21875 -30.984375 C 20.394531 -31.429688 19.410156 -31.65625 18.265625 -31.65625 L 11.46875 -31.65625 Z M 11.46875 -21.015625 "/></g></g></g><g fill="#545454" fill-opacity="1"><g transform="translate(512.363814, 290.087809)"><g><path d="M 22.78125 0.625 C 19.875 0.625 17.175781 0.125 14.6875 -0.875 C 12.195312 -1.882812 10.023438 -3.296875 8.171875 -5.109375 C 6.316406 -6.929688 4.867188 -9.050781 3.828125 -11.46875 C 2.796875 -13.894531 2.28125 -16.523438 2.28125 -19.359375 C 2.28125 -22.203125 2.789062 -24.832031 3.8125 -27.25 C 4.832031 -29.675781 6.269531 -31.785156 8.125 -33.578125 C 9.976562 -35.378906 12.148438 -36.78125 14.640625 -37.78125 C 17.128906 -38.789062 19.84375 -39.296875 22.78125 -39.296875 C 25.726562 -39.296875 28.445312 -38.789062 30.9375 -37.78125 C 33.425781 -36.78125 35.597656 -35.378906 37.453125 -33.578125 C 39.304688 -31.785156 40.742188 -29.675781 41.765625 -27.25 C 42.785156 -24.832031 43.296875 -22.203125 43.296875 -19.359375 C 43.296875 -16.523438 42.773438 -13.894531 41.734375 -11.46875 C 40.691406 -9.050781 39.242188 -6.929688 37.390625 -5.109375 C 35.546875 -3.296875 33.375 -1.882812 30.875 -0.875 C 28.382812 0.125 25.6875 0.625 22.78125 0.625 Z M 22.78125 -6.640625 C 24.550781 -6.640625 26.1875 -6.953125 27.6875 -7.578125 C 29.195312 -8.203125 30.519531 -9.078125 31.65625 -10.203125 C 32.800781 -11.328125 33.6875 -12.664062 34.3125 -14.21875 C 34.9375 -15.78125 35.25 -17.492188 35.25 -19.359375 C 35.25 -21.222656 34.9375 -22.925781 34.3125 -24.46875 C 33.6875 -26.007812 32.800781 -27.347656 31.65625 -28.484375 C 30.519531 -29.628906 29.195312 -30.503906 27.6875 -31.109375 C 26.1875 -31.722656 24.550781 -32.03125 22.78125 -32.03125 C 21.019531 -32.03125 19.382812 -31.722656 17.875 -31.109375 C 16.375 -30.503906 15.050781 -29.628906 13.90625 -28.484375 C 12.769531 -27.347656 11.890625 -26.007812 11.265625 -24.46875 C 10.640625 -22.925781 10.328125 -21.222656 10.328125 -19.359375 C 10.328125 -17.492188 10.640625 -15.78125 11.265625 -14.21875 C 11.890625 -12.664062 12.769531 -11.328125 13.90625 -10.203125 C 15.050781 -9.078125 16.375 -8.203125 17.875 -7.578125 C 19.382812 -6.953125 21.019531 -6.640625 22.78125 -6.640625 Z M 22.78125 -6.640625 "/></g></g></g><g fill="#545454" fill-opacity="1"><g transform="translate(557.931958, 290.087809)"><g><path d="M 17.5 0.625 C 15.070312 0.625 12.789062 0.179688 10.65625 -0.703125 C 8.53125 -1.585938 6.695312 -2.84375 5.15625 -4.46875 C 3.625 -6.09375 2.476562 -8.007812 1.71875 -10.21875 L 8.3125 -13.1875 C 9.28125 -11.070312 10.617188 -9.410156 12.328125 -8.203125 C 14.035156 -6.992188 15.929688 -6.390625 18.015625 -6.390625 C 19.117188 -6.390625 20.066406 -6.5625 20.859375 -6.90625 C 21.660156 -7.25 22.285156 -7.722656 22.734375 -8.328125 C 23.179688 -8.929688 23.40625 -9.648438 23.40625 -10.484375 C 23.40625 -11.378906 23.128906 -12.144531 22.578125 -12.78125 C 22.023438 -13.425781 21.160156 -13.941406 19.984375 -14.328125 L 12.40625 -16.8125 C 9.320312 -17.820312 7 -19.25 5.4375 -21.09375 C 3.882812 -22.945312 3.109375 -25.171875 3.109375 -27.765625 C 3.109375 -30.054688 3.671875 -32.066406 4.796875 -33.796875 C 5.921875 -35.523438 7.492188 -36.875 9.515625 -37.84375 C 11.546875 -38.8125 13.875 -39.296875 16.5 -39.296875 C 18.820312 -39.296875 20.96875 -38.894531 22.9375 -38.09375 C 24.914062 -37.300781 26.617188 -36.175781 28.046875 -34.71875 C 29.484375 -33.269531 30.566406 -31.523438 31.296875 -29.484375 L 24.765625 -26.53125 C 24.035156 -28.320312 22.941406 -29.726562 21.484375 -30.75 C 20.035156 -31.769531 18.375 -32.28125 16.5 -32.28125 C 15.425781 -32.28125 14.472656 -32.109375 13.640625 -31.765625 C 12.816406 -31.421875 12.179688 -30.925781 11.734375 -30.28125 C 11.285156 -29.644531 11.0625 -28.910156 11.0625 -28.078125 C 11.0625 -27.179688 11.351562 -26.394531 11.9375 -25.71875 C 12.53125 -25.039062 13.410156 -24.515625 14.578125 -24.140625 L 22.015625 -21.75 C 25.128906 -20.75 27.453125 -19.347656 28.984375 -17.546875 C 30.523438 -15.742188 31.296875 -13.546875 31.296875 -10.953125 C 31.296875 -8.703125 30.707031 -6.703125 29.53125 -4.953125 C 28.351562 -3.203125 26.734375 -1.832031 24.671875 -0.84375 C 22.617188 0.132812 20.226562 0.625 17.5 0.625 Z M 17.5 0.625 "/></g></g></g><g fill="#545454" fill-opacity="1"><g transform="translate(591.511214, 290.087809)"><g><path d="M 3.421875 0 L 3.421875 -38.671875 L 29.4375 -38.671875 L 29.4375 -31.65625 L 11.46875 -31.65625 L 11.46875 -22.890625 L 28.390625 -22.890625 L 28.390625 -15.890625 L 11.46875 -15.890625 L 11.46875 -7 L 29.4375 -7 L 29.4375 0 Z M 3.421875 0 "/></g></g></g><g clip-path="url(#7967dc6226)"><path fill="#545454" d="M 693.253906 261.054688 L 690.195312 258.015625 C 688.769531 256.597656 686.445312 256.597656 685.015625 258.015625 L 678.578125 264.417969 L 678.578125 243.84375 C 678.578125 240.832031 676.113281 238.382812 673.085938 238.382812 L 637.320312 238.382812 C 634.292969 238.382812 631.828125 240.832031 631.828125 243.84375 L 631.828125 295.058594 C 631.828125 298.070312 634.292969 300.519531 637.320312 300.519531 L 673.085938 300.519531 C 676.113281 300.519531 678.578125 298.070312 678.578125 295.058594 L 678.578125 280.613281 L 693.253906 266.207031 C 694.679688 264.785156 694.679688 262.476562 693.253906 261.054688 Z M 671.355469 282.589844 L 665.847656 285.144531 L 668.414062 279.671875 L 682.082031 266.082031 L 685.105469 269.089844 Z M 674.917969 295.058594 C 674.917969 296.0625 674.09375 296.878906 673.085938 296.878906 L 637.320312 296.878906 C 636.3125 296.878906 635.492188 296.0625 635.492188 295.058594 L 635.492188 243.84375 C 635.492188 242.839844 636.3125 242.023438 637.320312 242.023438 L 673.085938 242.023438 C 674.09375 242.023438 674.917969 242.839844 674.917969 243.84375 L 674.917969 268.058594 C 664.765625 278.152344 665.425781 277.429688 665.234375 277.84375 L 660.398438 288.140625 C 660.074219 288.835938 660.21875 289.65625 660.765625 290.199219 C 661.308594 290.738281 662.136719 290.882812 662.832031 290.558594 L 673.191406 285.753906 C 673.570312 285.578125 673.632812 285.46875 674.917969 284.207031 Z M 687.710938 266.53125 L 684.671875 263.507812 L 687.605469 260.59375 L 690.664062 263.632812 Z M 687.710938 266.53125 " fill-opacity="1" fill-rule="nonzero"/></g><path fill="#545454" d="M 641.59375 253.796875 L 668.9375 253.796875 C 669.949219 253.796875 670.765625 252.980469 670.765625 251.976562 C 670.765625 250.96875 669.949219 250.15625 668.9375 250.15625 L 641.59375 250.15625 C 640.582031 250.15625 639.761719 250.96875 639.761719 251.976562 C 639.761719 252.980469 640.582031 253.796875 641.59375 253.796875 Z M 641.59375 253.796875 " fill-opacity="1" fill-rule="nonzero"/><path fill="#545454" d="M 641.59375 263.503906 L 663.078125 263.503906 C 664.089844 263.503906 664.90625 262.691406 664.90625 261.683594 C 664.90625 260.679688 664.089844 259.863281 663.078125 259.863281 L 641.59375 259.863281 C 640.582031 259.863281 639.761719 260.679688 639.761719 261.683594 C 639.761719 262.691406 640.582031 263.503906 641.59375 263.503906 Z M 641.59375 263.503906 " fill-opacity="1" fill-rule="nonzero"/><path fill="#545454" d="M 657.21875 269.574219 L 641.59375 269.574219 C 640.582031 269.574219 639.761719 270.386719 639.761719 271.394531 C 639.761719 272.398438 640.582031 273.214844 641.59375 273.214844 L 657.21875 273.214844 C 658.230469 273.214844 659.050781 272.398438 659.050781 271.394531 C 659.050781 270.386719 658.230469 269.574219 657.21875 269.574219 Z M 657.21875 269.574219 " fill-opacity="1" fill-rule="nonzero"/></svg>