<svg version="1.1" xmlns="http://www.w3.org/2000/svg" viewBox="0 0 1035.8032541819207 703.2082098639439" width="3107.409762545762" height="2109.6246295918318">
  <!-- svg-source:excalidraw -->
  
  <defs>
    <style class="style-fonts">
      @font-face {
        font-family: "Virgil";
        src: url("https://excalidraw.com/Virgil.woff2");
      }
      @font-face {
        font-family: "Cascadia";
        src: url("https://excalidraw.com/Cascadia.woff2");
      }
    </style>
  </defs>
  <g stroke-linecap="round" transform="translate(412.99413383473154 66.2453473487767) rotate(0 56.81742415394865 192.90045675379736)"><path d="M6.91 7.33 C6.91 7.33, 6.91 7.33, 6.91 7.33 M6.91 7.33 C6.91 7.33, 6.91 7.33, 6.91 7.33 M9.14 29.15 C13.62 23.54, 21.39 17.51, 32.1 2.73 M9.14 29.15 C13.65 21.95, 18.4 19.11, 32.1 2.73 M8.75 53.98 C16.65 44.61, 35.03 26.94, 52.71 3.42 M8.75 53.98 C22.13 39.04, 35.19 24.17, 52.71 3.42 M9.02 78.06 C22.8 60.37, 38.94 47.38, 73.31 4.1 M9.02 78.06 C21.64 63.08, 35.38 48.12, 73.31 4.1 M9.28 102.15 C42.52 62.94, 77.86 22.42, 93.91 4.79 M9.28 102.15 C39.09 70.37, 67.86 36.29, 93.91 4.79 M8.89 126.98 C37.65 90.74, 70.06 63.83, 110.58 10 M8.89 126.98 C41.06 88.83, 70.78 51.4, 110.58 10 M9.16 151.06 C40.31 113.04, 69.3 84.08, 118.07 25.78 M9.16 151.06 C48.72 106.61, 86.34 62.87, 118.07 25.78 M8.77 175.9 C29.01 150.08, 56.15 114.25, 117.68 50.62 M8.77 175.9 C48.55 133, 89.16 88.99, 117.68 50.62 M9.04 199.98 C44.5 160.76, 83.25 119.22, 117.94 74.7 M9.04 199.98 C31.52 170.89, 54.93 144.4, 117.94 74.7 M9.3 224.06 C42.63 193.72, 69.93 157.22, 118.21 98.78 M9.3 224.06 C49.79 175.87, 90.51 124.23, 118.21 98.78 M8.91 248.9 C49.7 206.18, 82.71 164.93, 117.82 123.62 M8.91 248.9 C33.48 219.94, 58.88 190.99, 117.82 123.62 M9.18 272.98 C48.92 228.6, 88.59 179.78, 118.08 147.7 M9.18 272.98 C32.57 247, 55.66 223.27, 118.08 147.7 M8.79 297.82 C49.77 246.15, 96.25 199.94, 118.35 171.78 M8.79 297.82 C56.03 246.15, 96.15 197.46, 118.35 171.78 M9.06 321.9 C41.46 285.53, 78.17 246.11, 117.96 196.62 M9.06 321.9 C42.23 286.7, 69.69 250.17, 117.96 196.62 M9.32 345.98 C43.24 311.94, 75.53 276.33, 118.23 220.7 M9.32 345.98 C38.3 311.47, 71.97 277.44, 118.23 220.7 M5 375.35 C31.45 344.79, 61.7 316.93, 118.49 244.78 M5 375.35 C47.93 324.11, 90.5 275.3, 118.49 244.78 M17.73 385.09 C53.12 337.2, 92.37 291.55, 118.1 269.62 M17.73 385.09 C51.02 344.16, 85.82 301.8, 118.1 269.62 M33.74 391.06 C56.6 359.02, 82.48 332.8, 118.37 293.7 M33.74 391.06 C58.84 361.21, 85.3 330.08, 118.37 293.7 M55.65 390.23 C77.98 365.29, 104.56 331.01, 118.64 317.78 M55.65 390.23 C75.16 369.29, 92.52 350.7, 118.64 317.78 M76.92 390.16 C89.4 380.49, 92.31 372.4, 118.25 342.62 M76.92 390.16 C88.76 378.92, 99.4 362.56, 118.25 342.62" stroke="#eebefa" stroke-width="2" fill="none"></path><path d="M28.41 0 M28.41 0 C44.2 -3.36, 68.24 -0.13, 85.23 0 M28.41 0 C42.25 1.77, 52.71 1.85, 85.23 0 M85.23 0 C102.33 3.8, 110.43 12.47, 113.63 28.41 M85.23 0 C104.82 0.65, 110.85 9.3, 113.63 28.41 M113.63 28.41 C115.2 149.28, 115.31 273.64, 113.63 357.39 M113.63 28.41 C109.17 144.22, 111.3 259.42, 113.63 357.39 M113.63 357.39 C115.43 376.13, 104.44 388.05, 85.23 385.8 M113.63 357.39 C111.95 376.31, 105.13 383.67, 85.23 385.8 M85.23 385.8 C67.54 387.33, 46.95 386.6, 28.41 385.8 M85.23 385.8 C67.98 388.47, 53.01 384.84, 28.41 385.8 M28.41 385.8 C7.03 387.25, -3.03 374.15, 0 357.39 M28.41 385.8 C9.89 381.4, 2.89 379.83, 0 357.39 M0 357.39 C2.82 230.4, 3.37 102.09, 0 28.41 M0 357.39 C2.26 286.03, 2.95 215.7, 0 28.41 M0 28.41 C-1.44 6.78, 13.15 -2.94, 28.41 0 M0 28.41 C-3.86 8.45, 6.18 -1.12, 28.41 0" stroke="#b14bf4" stroke-width="4" fill="none"></path></g><g stroke-linecap="round" transform="translate(291.28787736794004 63.320624882048264) rotate(0 17.654715385135205 75.27826116598277)"><path d="M2.35 2.04 C2.35 2.04, 2.35 2.04, 2.35 2.04 M2.35 2.04 C2.35 2.04, 2.35 2.04, 2.35 2.04 M9.83 17.82 C11.6 16.07, 12.2 10.97, 18.36 8.01 M9.83 17.82 C11.93 15.73, 14.97 12.73, 18.36 8.01 M10.1 41.9 C12.57 34.04, 19.49 26.57, 37.65 10.21 M10.1 41.9 C18.95 32.06, 28.47 18.98, 37.65 10.21 M10.37 65.99 C25.02 52.52, 33.13 40.44, 37.26 35.04 M10.37 65.99 C18.79 52.95, 30.11 43.44, 37.26 35.04 M9.98 90.82 C19.14 76.52, 25.98 65.12, 37.53 59.12 M9.98 90.82 C22.26 78.47, 29.31 67.68, 37.53 59.12 M10.24 114.9 C15.63 107.31, 18.87 103.07, 37.14 83.96 M10.24 114.9 C19.36 104.55, 27.29 94.13, 37.14 83.96 M1.98 148.8 C13.11 143.34, 18.02 127.56, 37.41 108.04 M1.98 148.8 C15.82 131.03, 28.52 117.48, 37.41 108.04 M14.71 158.54 C24.92 147.71, 34.81 142.28, 37.02 132.88 M14.71 158.54 C21.28 154.68, 25.95 145.68, 37.02 132.88" stroke="#eebefa" stroke-width="2" fill="none"></path><path d="M8.83 0 M8.83 0 C16.58 -2.85, 22.66 -0.55, 26.48 0 M8.83 0 C13.84 -0.45, 17.58 -1.9, 26.48 0 M26.48 0 C35.51 2.13, 32.81 6.92, 35.31 8.83 M26.48 0 C33.7 -1.53, 39.03 1.61, 35.31 8.83 M35.31 8.83 C33.92 60.95, 40.25 109, 35.31 141.73 M35.31 8.83 C33.26 42.58, 36.15 78.02, 35.31 141.73 M35.31 141.73 C35.41 145.37, 36.08 151.99, 26.48 150.56 M35.31 141.73 C35.09 151.76, 35.85 151.09, 26.48 150.56 M26.48 150.56 C20.21 150.85, 18.87 150.16, 8.83 150.56 M26.48 150.56 C21.24 150.43, 14.96 152.01, 8.83 150.56 M8.83 150.56 C2.66 148.76, -1.64 147.25, 0 141.73 M8.83 150.56 C7.16 155.03, -0.63 148.86, 0 141.73 M0 141.73 C-3.77 111.92, 0.93 79.01, 0 8.83 M0 141.73 C1.52 94.76, 0.73 44.54, 0 8.83 M0 8.83 C1.27 0.63, 4.15 0.85, 8.83 0 M0 8.83 C-3.57 2.92, 4.01 1.68, 8.83 0" stroke="#b14bf4" stroke-width="4" fill="none"></path></g><g stroke-linecap="round" transform="translate(116.31106191832805 238.10047003018292) rotate(0 17.654715385135205 75.2782611659828)"><path d="M2.35 2.04 C2.35 2.04, 2.35 2.04, 2.35 2.04 M2.35 2.04 C2.35 2.04, 2.35 2.04, 2.35 2.04 M9.83 17.82 C10.36 12.74, 17.08 10.01, 18.36 8.01 M9.83 17.82 C12.55 14.89, 14.24 13.99, 18.36 8.01 M10.1 41.9 C14.43 35.82, 22.29 24.87, 37.65 10.21 M10.1 41.9 C16.71 34.32, 26.41 24.98, 37.65 10.21 M10.37 65.99 C19.36 55.23, 25.98 51.98, 37.26 35.04 M10.37 65.99 C19.3 57.3, 22.46 50.61, 37.26 35.04 M9.98 90.82 C17.41 82.53, 28.58 73.92, 37.53 59.12 M9.98 90.82 C22.15 78.31, 31.61 66.81, 37.53 59.12 M10.24 114.9 C15.97 107.67, 25.76 100.86, 37.14 83.96 M10.24 114.9 C20.13 104.44, 25.38 96.18, 37.14 83.96 M1.98 148.8 C14.17 138.23, 24.07 129.38, 37.41 108.04 M1.98 148.8 C13.08 135.75, 24.76 123.44, 37.41 108.04 M14.71 158.54 C20.65 146.3, 31.62 137.14, 37.02 132.88 M14.71 158.54 C21.19 149.68, 28.28 142.56, 37.02 132.88" stroke="#eebefa" stroke-width="2" fill="none"></path><path d="M8.83 0 M8.83 0 C16.78 1.02, 24.33 -0.47, 26.48 0 M8.83 0 C12.52 0.64, 19.04 -1.62, 26.48 0 M26.48 0 C34.52 3.05, 33.37 2.01, 35.31 8.83 M26.48 0 C36.62 -0.25, 37.42 6.67, 35.31 8.83 M35.31 8.83 C38.87 33.62, 35.91 61.82, 35.31 141.73 M35.31 8.83 C32.59 53.67, 32.8 103.74, 35.31 141.73 M35.31 141.73 C33.51 148.81, 30.08 152.76, 26.48 150.56 M35.31 141.73 C38.21 144, 33.01 147.26, 26.48 150.56 M26.48 150.56 C19.97 149.98, 14.07 154.2, 8.83 150.56 M26.48 150.56 C19.51 152.62, 12.52 150.77, 8.83 150.56 M8.83 150.56 C1.14 146.86, -1.28 148.76, 0 141.73 M8.83 150.56 C6.39 147.57, -0.31 149.13, 0 141.73 M0 141.73 C0.38 97.22, 0.18 61.86, 0 8.83 M0 141.73 C0.02 111.82, 0.14 78.83, 0 8.83 M0 8.83 C2.47 2.64, -0.52 2.67, 8.83 0 M0 8.83 C-0.5 0.35, 3.72 -0.2, 8.83 0" stroke="#b14bf4" stroke-width="4" fill="none"></path></g><g stroke-linecap="round" transform="translate(299.80352944906497 475.3055971071491) rotate(0 17.654715385135205 75.2782611659828)"><path d="M2.35 2.04 C2.35 2.04, 2.35 2.04, 2.35 2.04 M2.35 2.04 C2.35 2.04, 2.35 2.04, 2.35 2.04 M9.83 17.82 C13.89 16.5, 14.88 10.62, 18.36 8.01 M9.83 17.82 C11.59 16.38, 14.03 13.73, 18.36 8.01 M10.1 41.9 C20.24 31, 25.56 27.37, 37.65 10.21 M10.1 41.9 C18.32 32.71, 28.45 19.62, 37.65 10.21 M10.37 65.99 C21.42 58.99, 26.47 44.5, 37.26 35.04 M10.37 65.99 C22.57 51.71, 33.37 39.57, 37.26 35.04 M9.98 90.82 C17.72 82.71, 25.18 67.89, 37.53 59.12 M9.98 90.82 C19.88 81.43, 26.03 72.6, 37.53 59.12 M10.24 114.9 C19.96 101.47, 32.57 91.67, 37.14 83.96 M10.24 114.9 C21.67 104.57, 33.24 92.23, 37.14 83.96 M1.98 148.8 C14.91 131.7, 28.31 112.18, 37.41 108.04 M1.98 148.8 C9.94 137.21, 21.4 126.61, 37.41 108.04 M14.71 158.54 C20.06 150.8, 34.53 135.55, 37.02 132.88 M14.71 158.54 C21.02 151.27, 24.42 147.68, 37.02 132.88" stroke="#eebefa" stroke-width="2" fill="none"></path><path d="M8.83 0 M8.83 0 C13.6 -2.22, 19.75 -0.39, 26.48 0 M8.83 0 C14.34 1.77, 18.65 -0.77, 26.48 0 M26.48 0 C28.71 0.49, 35.68 2.46, 35.31 8.83 M26.48 0 C30.21 0.56, 31.22 1.65, 35.31 8.83 M35.31 8.83 C32.63 43.68, 33.31 68.7, 35.31 141.73 M35.31 8.83 C35.94 50.47, 38.25 91.41, 35.31 141.73 M35.31 141.73 C33.86 150.15, 29.31 148.73, 26.48 150.56 M35.31 141.73 C39.48 148.06, 28.15 150.2, 26.48 150.56 M26.48 150.56 C24.76 149.97, 15.91 151.36, 8.83 150.56 M26.48 150.56 C19.98 148.76, 13.84 150.64, 8.83 150.56 M8.83 150.56 C4.56 150.18, -2.23 147.74, 0 141.73 M8.83 150.56 C3.6 154.42, -3.41 150.47, 0 141.73 M0 141.73 C0.13 90.53, 0.62 41.71, 0 8.83 M0 141.73 C-0.28 107.71, -2.05 71.56, 0 8.83 M0 8.83 C3.76 4.8, 4.43 1.5, 8.83 0 M0 8.83 C-2.13 2.25, 3.42 3.44, 8.83 0" stroke="#b14bf4" stroke-width="4" fill="none"></path></g><g stroke-linecap="round" transform="translate(607.1190171217187 479.03377293775407) rotate(0 17.654715385135205 75.2782611659828)"><path d="M2.35 2.04 C2.35 2.04, 2.35 2.04, 2.35 2.04 M2.35 2.04 C2.35 2.04, 2.35 2.04, 2.35 2.04 M9.83 17.82 C13.38 17.06, 12.08 13.28, 18.36 8.01 M9.83 17.82 C12.89 15.79, 13.21 13.92, 18.36 8.01 M10.1 41.9 C24.24 28.33, 35.18 15.27, 37.65 10.21 M10.1 41.9 C17.81 33.7, 28.02 22.55, 37.65 10.21 M10.37 65.99 C21.64 56.61, 28.7 44.41, 37.26 35.04 M10.37 65.99 C18.64 55.73, 28.08 44.88, 37.26 35.04 M9.98 90.82 C16.31 79.72, 25.63 75.44, 37.53 59.12 M9.98 90.82 C15.89 83.82, 22.47 76.33, 37.53 59.12 M10.24 114.9 C16.97 103.55, 31.54 90.44, 37.14 83.96 M10.24 114.9 C16.41 106.25, 22.17 99.52, 37.14 83.96 M1.98 148.8 C8.86 137.53, 23.24 128.51, 37.41 108.04 M1.98 148.8 C11.53 136.19, 22.65 124.16, 37.41 108.04 M14.71 158.54 C16.25 151.66, 24.74 145.52, 37.02 132.88 M14.71 158.54 C20.45 151.46, 28.93 145.25, 37.02 132.88" stroke="#eebefa" stroke-width="2" fill="none"></path><path d="M8.83 0 M8.83 0 C14.7 0.7, 19.94 0.01, 26.48 0 M8.83 0 C14.62 -1.36, 18.55 1.56, 26.48 0 M26.48 0 C31.39 3.71, 34.79 3.71, 35.31 8.83 M26.48 0 C32.33 4.49, 33.97 4.31, 35.31 8.83 M35.31 8.83 C33.46 43.22, 39.74 72.22, 35.31 141.73 M35.31 8.83 C36 53.85, 37.8 98.24, 35.31 141.73 M35.31 141.73 C38.3 148.35, 30.28 151.13, 26.48 150.56 M35.31 141.73 C33.91 147.94, 29.76 149.65, 26.48 150.56 M26.48 150.56 C25.1 152.31, 19.58 149.22, 8.83 150.56 M26.48 150.56 C20.81 148.66, 14.35 151.55, 8.83 150.56 M8.83 150.56 C5.94 153.65, 2.08 144.94, 0 141.73 M8.83 150.56 C1.54 151.9, 3.06 151.76, 0 141.73 M0 141.73 C-1.63 86.57, 3.22 35.3, 0 8.83 M0 141.73 C2.94 106.76, 0.28 73.67, 0 8.83 M0 8.83 C-3.36 5.48, -0.75 -3.37, 8.83 0 M0 8.83 C3.37 3.06, 1.88 -2.34, 8.83 0" stroke="#b14bf4" stroke-width="4" fill="none"></path></g><g stroke-linecap="round" transform="translate(792.1846662852848 274.3398123347873) rotate(0 17.654715385135205 75.2782611659828)"><path d="M2.35 2.04 C2.35 2.04, 2.35 2.04, 2.35 2.04 M2.35 2.04 C2.35 2.04, 2.35 2.04, 2.35 2.04 M9.83 17.82 C10 14.52, 13.41 14.56, 18.36 8.01 M9.83 17.82 C11.09 15.86, 14.43 13.42, 18.36 8.01 M10.1 41.9 C22.02 32.37, 29.03 18.16, 37.65 10.21 M10.1 41.9 C21.88 29.71, 31.38 18.56, 37.65 10.21 M10.37 65.99 C14.61 61.78, 19.18 51.7, 37.26 35.04 M10.37 65.99 C22.35 55.08, 31.42 42.48, 37.26 35.04 M9.98 90.82 C20.25 77.93, 25.87 72.26, 37.53 59.12 M9.98 90.82 C15.84 80.55, 23.04 75.01, 37.53 59.12 M10.24 114.9 C16.41 105.94, 20.56 102.64, 37.14 83.96 M10.24 114.9 C16.68 103.8, 24.21 96.87, 37.14 83.96 M1.98 148.8 C15.92 136.3, 26.72 115.6, 37.41 108.04 M1.98 148.8 C10.94 138.32, 18.75 128.95, 37.41 108.04 M14.71 158.54 C17.27 150.55, 22.02 143.2, 37.02 132.88 M14.71 158.54 C20.71 150.52, 30.52 141.83, 37.02 132.88" stroke="#eebefa" stroke-width="2" fill="none"></path><path d="M8.83 0 M8.83 0 C16.43 -2.69, 18.27 -1.95, 26.48 0 M8.83 0 C14.72 -1.47, 16.39 1.3, 26.48 0 M26.48 0 C30.26 2.55, 31.82 4.28, 35.31 8.83 M26.48 0 C31.19 -1.88, 35.66 4.99, 35.31 8.83 M35.31 8.83 C36.48 55.31, 37.05 93.49, 35.31 141.73 M35.31 8.83 C37.51 45.17, 36.69 83.06, 35.31 141.73 M35.31 141.73 C38.98 150.64, 28.62 152.64, 26.48 150.56 M35.31 141.73 C39.34 143.62, 34.33 153.19, 26.48 150.56 M26.48 150.56 C17.53 150.99, 13.93 153.65, 8.83 150.56 M26.48 150.56 C18.76 151.89, 12.7 151.98, 8.83 150.56 M8.83 150.56 C1.47 147.02, 1.06 147.49, 0 141.73 M8.83 150.56 C-0.13 147.4, 0.63 146.1, 0 141.73 M0 141.73 C-1.81 107.39, -0.14 69.33, 0 8.83 M0 141.73 C-2.62 95.21, -1.99 50.8, 0 8.83 M0 8.83 C-1.21 5.08, 0.46 -3.71, 8.83 0 M0 8.83 C1.36 1.28, 2.42 4.05, 8.83 0" stroke="#b14bf4" stroke-width="4" fill="none"></path></g><g stroke-linecap="round" transform="translate(639.213584628081 106.16229971260987) rotate(0 17.654715385135262 75.2782611659828)"><path d="M2.35 2.04 C2.35 2.04, 2.35 2.04, 2.35 2.04 M2.35 2.04 C2.35 2.04, 2.35 2.04, 2.35 2.04 M9.83 17.82 C12.23 13.36, 16.8 8.17, 18.36 8.01 M9.83 17.82 C13.96 15.36, 17.09 9.34, 18.36 8.01 M10.1 41.9 C20.95 33.51, 32.35 16.3, 37.65 10.21 M10.1 41.9 C20.71 32.44, 31.31 19.07, 37.65 10.21 M10.37 65.99 C16.31 61.63, 22.41 46.85, 37.26 35.04 M10.37 65.99 C17.79 56.52, 27.29 45.65, 37.26 35.04 M9.98 90.82 C21.98 80.91, 30.39 70.12, 37.53 59.12 M9.98 90.82 C20.78 78.97, 33.32 65.8, 37.53 59.12 M10.24 114.9 C21.31 103.02, 29.18 97.06, 37.14 83.96 M10.24 114.9 C16.36 107.05, 21.75 102.38, 37.14 83.96 M1.98 148.8 C12.55 134.38, 21.79 125.91, 37.41 108.04 M1.98 148.8 C15.98 135.84, 29.48 120.97, 37.41 108.04 M14.71 158.54 C25.36 151.22, 30.62 140.13, 37.02 132.88 M14.71 158.54 C24 148.06, 30.43 140.31, 37.02 132.88" stroke="#eebefa" stroke-width="2" fill="none"></path><path d="M8.83 0 M8.83 0 C13.36 0.58, 17.78 1, 26.48 0 M8.83 0 C14.12 -0.07, 18.4 0.66, 26.48 0 M26.48 0 C36.23 2.7, 36.66 4.44, 35.31 8.83 M26.48 0 C32.79 -0.47, 31.92 0.56, 35.31 8.83 M35.31 8.83 C29.83 36.01, 30.61 70.33, 35.31 141.73 M35.31 8.83 C32.92 39.04, 35.42 69.61, 35.31 141.73 M35.31 141.73 C33.6 151.43, 32.18 148.17, 26.48 150.56 M35.31 141.73 C36.67 149.72, 33.46 147.04, 26.48 150.56 M26.48 150.56 C17.6 148.04, 10.74 151.62, 8.83 150.56 M26.48 150.56 C23.63 151.02, 19.22 151.62, 8.83 150.56 M8.83 150.56 C-0.56 147.98, -0.64 144.92, 0 141.73 M8.83 150.56 C6.05 150.26, -2.49 143.43, 0 141.73 M0 141.73 C2.74 113.84, 1.29 86.4, 0 8.83 M0 141.73 C1.3 92.22, 1.48 40.1, 0 8.83 M0 8.83 C3.32 2.16, 3.71 -1.21, 8.83 0 M0 8.83 C4.3 0.55, 1.47 3.49, 8.83 0" stroke="#b14bf4" stroke-width="4" fill="none"></path></g><g transform="translate(360.3457175563109 228.6111643979624) rotate(0 13.512083945714494 24.560967443551647)" stroke="none"><path fill="#b14bf4" d="M 53.52,97.72 Q 53.52,97.72 48.36,90.74 43.20,83.75 38.39,76.42 33.59,69.09 28.83,61.65 24.07,54.22 17.40,43.17 10.74,32.12 5.65,22.85 0.56,13.57 -2.44,7.80 -5.44,2.04 -7.91,-3.19 -10.39,-8.43 -11.81,-11.85 -13.23,-15.28 -14.35,-17.67 -15.47,-20.06 -16.50,-22.02 -17.54,-23.98 -18.54,-26.01 -19.54,-28.03 -20.80,-30.49 -22.06,-32.95 -22.91,-34.40 -23.77,-35.85 -24.37,-36.78 -24.97,-37.70 -25.64,-39.15 -26.31,-40.59 -27.15,-41.81 -27.98,-43.03 -29.00,-44.70 -30.02,-46.37 -30.17,-46.77 -30.32,-47.16 -30.33,-47.59 -30.34,-48.01 -30.22,-48.41 -30.10,-48.82 -29.85,-49.16 -29.61,-49.51 -29.26,-49.76 -28.92,-50.01 -28.52,-50.13 -28.11,-50.26 -27.69,-50.25 -27.27,-50.24 -26.87,-50.10 -26.47,-49.95 -26.14,-49.69 -25.81,-49.42 -25.58,-49.07 -25.35,-48.71 -25.25,-48.30 -25.14,-47.89 -25.17,-47.47 -25.21,-47.05 -25.37,-46.66 -25.54,-46.27 -25.82,-45.95 -26.10,-45.64 -26.47,-45.43 -26.83,-45.22 -27.25,-45.13 -27.67,-45.05 -28.09,-45.11 -28.50,-45.16 -28.88,-45.35 -29.26,-45.54 -29.57,-45.83 -29.87,-46.13 -30.06,-46.51 -30.25,-46.89 -30.31,-47.31 -30.36,-47.73 -30.29,-48.14 -30.21,-48.56 -30.00,-48.93 -29.80,-49.30 -29.48,-49.58 -29.17,-49.87 -28.78,-50.03 -28.39,-50.20 -27.97,-50.24 -27.55,-50.28 -27.14,-50.18 -26.73,-50.08 -26.37,-49.85 -26.01,-49.62 -25.74,-49.29 -25.48,-48.97 -25.48,-48.97 -25.48,-48.97 -24.54,-46.45 -23.60,-43.93 -22.96,-42.75 -22.32,-41.57 -22.12,-40.42 -21.92,-39.27 -21.52,-38.25 -21.13,-37.23 -20.42,-35.69 -19.71,-34.15 -18.44,-31.68 -17.18,-29.20 -16.19,-27.21 -15.20,-25.22 -14.13,-23.20 -13.06,-21.19 -11.91,-18.74 -10.76,-16.30 -9.36,-12.94 -7.96,-9.57 -5.50,-4.39 -3.05,0.79 -0.04,6.52 2.95,12.26 8.03,21.47 13.10,30.69 19.77,41.69 26.44,52.69 31.22,60.09 36.00,67.50 40.80,74.73 45.59,81.96 50.81,88.91 56.03,95.86 56.12,96.02 56.21,96.18 56.26,96.36 56.32,96.55 56.32,96.73 56.33,96.92 56.29,97.11 56.25,97.29 56.17,97.46 56.09,97.63 55.97,97.78 55.85,97.92 55.70,98.03 55.55,98.15 55.37,98.22 55.20,98.29 55.01,98.32 54.83,98.35 54.64,98.33 54.45,98.32 54.28,98.26 54.10,98.20 53.94,98.10 53.78,98.00 53.65,97.86 53.52,97.72 53.52,97.72 L 53.52,97.72 Z"></path></g><g transform="translate(279.69230614461674 334.4941399794089) rotate(0 8.240711634769923 14.128452703901672)" stroke="none"><path fill="#b14bf4" d="M 137.18,1.56 Q 137.18,1.56 134.52,1.52 131.86,1.49 126.18,1.59 120.50,1.69 112.25,2.17 104.00,2.64 94.74,3.52 85.48,4.40 71.43,5.90 57.38,7.40 48.03,8.51 38.68,9.61 26.04,11.30 13.40,13.00 4.52,14.19 -4.35,15.38 -10.81,16.25 -17.28,17.12 -22.15,17.81 -27.03,18.50 -30.69,19.09 -34.36,19.68 -37.32,20.16 -40.29,20.63 -44.00,21.28 -47.71,21.93 -50.16,22.37 -52.62,22.81 -54.54,23.13 -56.47,23.46 -58.16,23.73 -59.85,24.00 -61.42,24.25 -63.00,24.49 -65.91,24.71 -68.82,24.93 -71.51,25.06 -74.20,25.19 -76.74,25.29 -79.29,25.40 -81.56,25.49 -83.82,25.58 -86.00,25.67 -88.17,25.76 -90.25,25.91 -92.32,26.07 -94.22,26.27 -96.12,26.47 -97.82,26.69 -99.52,26.90 -101.02,27.13 -102.52,27.36 -103.93,27.59 -105.33,27.83 -106.58,28.06 -107.83,28.30 -109.55,28.74 -111.28,29.19 -113.54,29.58 -115.80,29.98 -117.73,30.34 -119.65,30.70 -119.95,30.70 -120.25,30.70 -120.53,30.63 -120.82,30.56 -121.09,30.42 -121.35,30.28 -121.57,30.08 -121.79,29.88 -121.96,29.64 -122.13,29.39 -122.23,29.11 -122.34,28.83 -122.37,28.54 -122.41,28.24 -122.37,27.95 -122.33,27.65 -122.23,27.38 -122.12,27.10 -121.95,26.85 -121.78,26.61 -121.56,26.41 -121.33,26.22 -121.07,26.08 -120.81,25.94 -120.52,25.87 -120.23,25.80 -119.27,26.10 -118.31,26.40 -118.05,26.71 -117.80,27.02 -117.66,27.40 -117.52,27.77 -117.51,28.17 -117.49,28.57 -117.61,28.95 -117.72,29.33 -117.95,29.66 -118.18,29.98 -118.51,30.22 -118.83,30.45 -119.21,30.57 -119.59,30.69 -119.99,30.69 -120.39,30.68 -120.76,30.54 -121.14,30.41 -121.45,30.16 -121.76,29.91 -121.98,29.58 -122.20,29.24 -122.30,28.86 -122.40,28.47 -122.37,28.07 -122.34,27.67 -122.18,27.31 -122.03,26.94 -121.76,26.64 -121.50,26.34 -121.15,26.14 -120.81,25.94 -120.42,25.86 -120.02,25.79 -119.63,25.84 -119.23,25.89 -118.87,26.06 -118.51,26.24 -118.23,26.52 -117.95,26.80 -117.77,27.16 -117.59,27.51 -117.53,27.91 -117.47,28.30 -117.55,28.69 -117.62,29.09 -117.81,29.44 -118.01,29.78 -118.30,30.05 -118.60,30.32 -118.96,30.48 -119.33,30.64 -119.72,30.68 -120.12,30.71 -120.51,30.62 -120.90,30.52 -120.27,30.61 -119.65,30.70 -119.95,30.70 -120.25,30.70 -120.53,30.63 -120.82,30.56 -121.08,30.42 -121.35,30.28 -121.57,30.08 -121.79,29.88 -121.96,29.64 -122.13,29.39 -122.23,29.11 -122.34,28.83 -122.37,28.54 -122.41,28.24 -122.37,27.95 -122.33,27.65 -122.23,27.38 -122.12,27.10 -121.95,26.85 -121.78,26.61 -121.56,26.41 -121.33,26.22 -121.07,26.08 -120.81,25.94 -120.52,25.87 -120.23,25.80 -118.30,25.46 -116.38,25.11 -114.25,24.88 -112.13,24.64 -110.24,24.47 -108.36,24.29 -107.06,24.19 -105.76,24.09 -104.32,23.99 -102.87,23.90 -101.33,23.82 -99.80,23.74 -98.08,23.65 -96.37,23.57 -94.45,23.44 -92.53,23.31 -90.42,23.14 -88.30,22.98 -86.13,22.86 -83.96,22.74 -81.70,22.61 -79.44,22.48 -76.92,22.32 -74.39,22.16 -71.75,21.96 -69.12,21.76 -66.24,21.44 -63.37,21.12 -61.79,21.02 -60.21,20.92 -58.54,20.80 -56.88,20.68 -54.98,20.45 -53.08,20.22 -50.62,19.78 -48.16,19.34 -44.44,18.68 -40.71,18.03 -37.74,17.55 -34.78,17.07 -31.09,16.48 -27.40,15.88 -22.52,15.19 -17.63,14.49 -11.17,13.61 -4.70,12.74 4.16,11.54 13.04,10.34 25.70,8.64 38.36,6.93 47.72,5.81 57.09,4.69 71.15,3.17 85.21,1.65 94.52,0.74 103.83,-0.16 112.13,-0.67 120.44,-1.19 126.15,-1.34 131.86,-1.49 134.52,-1.52 137.18,-1.56 137.37,-1.53 137.55,-1.51 137.73,-1.45 137.91,-1.38 138.06,-1.27 138.22,-1.16 138.34,-1.02 138.47,-0.88 138.55,-0.72 138.64,-0.55 138.69,-0.37 138.73,-0.18 138.73,0.00 138.73,0.18 138.69,0.37 138.64,0.55 138.55,0.72 138.47,0.88 138.34,1.02 138.22,1.16 138.06,1.27 137.91,1.38 137.73,1.45 137.55,1.51 137.37,1.53 137.18,1.56 137.18,1.56 L 137.18,1.56 Z"></path></g><g transform="translate(394.44961834463265 384.5669388268751) rotate(0 -15.212817299420806 70.38737878783871)" stroke="none"><path fill="#b14bf4" d="M 21.89,0.62 Q 21.89,0.62 20.79,3.06 19.68,5.50 17.93,8.80 16.18,12.09 13.93,16.13 11.69,20.18 8.97,25.12 6.24,30.06 0.61,40.28 -5.00,50.50 -8.06,56.35 -11.13,62.21 -13.06,65.93 -14.99,69.65 -16.80,73.37 -18.62,77.10 -19.95,79.84 -21.28,82.59 -22.54,85.09 -23.79,87.59 -25.17,90.19 -26.55,92.78 -28.75,97.06 -30.95,101.34 -32.59,104.49 -34.23,107.65 -35.89,111.10 -37.55,114.55 -39.09,117.74 -40.64,120.94 -41.69,123.00 -42.75,125.06 -43.68,127.18 -44.62,129.30 -45.31,131.05 -46.01,132.79 -46.39,133.96 -46.76,135.13 -47.28,136.62 -47.80,138.12 -48.32,139.60 -48.85,141.09 -48.95,141.40 -49.06,141.72 -49.26,141.99 -49.46,142.26 -49.73,142.45 -50.01,142.64 -50.33,142.73 -50.65,142.82 -50.98,142.80 -51.32,142.79 -51.63,142.67 -51.94,142.55 -52.19,142.33 -52.45,142.12 -52.62,141.83 -52.80,141.55 -52.87,141.22 -52.95,140.90 -52.91,140.57 -52.88,140.23 -52.74,139.93 -52.61,139.63 -52.38,139.38 -52.15,139.14 -51.86,138.98 -51.56,138.82 -51.23,138.76 -50.91,138.71 -50.58,138.76 -50.25,138.81 -49.95,138.96 -49.65,139.12 -49.42,139.36 -49.19,139.60 -49.05,139.90 -48.90,140.20 -48.87,140.53 -48.83,140.86 -48.90,141.19 -48.96,141.52 -49.13,141.81 -49.30,142.09 -49.56,142.31 -49.81,142.53 -50.12,142.66 -50.43,142.78 -50.76,142.80 -51.09,142.82 -51.42,142.74 -51.74,142.65 -52.02,142.46 -52.30,142.28 -52.50,142.02 -52.70,141.75 -52.81,141.44 -52.92,141.12 -52.92,140.79 -52.93,140.45 -52.93,140.45 -52.93,140.45 -52.18,138.38 -51.43,136.31 -50.61,135.07 -49.80,133.82 -49.21,132.74 -48.62,131.66 -47.82,129.95 -47.02,128.24 -46.06,126.05 -45.09,123.87 -44.05,121.83 -43.01,119.79 -41.46,116.60 -39.92,113.41 -38.25,109.92 -36.57,106.44 -34.93,103.28 -33.29,100.13 -31.09,95.84 -28.88,91.54 -27.52,88.97 -26.16,86.41 -24.91,83.92 -23.67,81.43 -22.34,78.68 -21.01,75.93 -19.19,72.18 -17.37,68.42 -15.44,64.69 -13.52,60.96 -10.46,55.07 -7.39,49.19 -1.78,38.96 3.82,28.74 6.52,23.78 9.22,18.82 11.42,14.79 13.62,10.75 15.28,7.53 16.94,4.30 17.99,1.84 19.03,-0.62 19.13,-0.78 19.22,-0.95 19.36,-1.08 19.49,-1.21 19.65,-1.31 19.81,-1.41 19.99,-1.47 20.17,-1.53 20.35,-1.54 20.54,-1.56 20.73,-1.52 20.91,-1.49 21.08,-1.42 21.26,-1.34 21.41,-1.23 21.56,-1.11 21.67,-0.96 21.79,-0.82 21.87,-0.65 21.95,-0.47 21.99,-0.29 22.02,-0.10 22.01,0.07 22.00,0.26 21.95,0.44 21.89,0.62 21.89,0.62 L 21.89,0.62 Z"></path></g><g transform="translate(530.2659558682859 412.46454730899893) rotate(0 35.73001026143288 53.56122468420102)" stroke="none"><path fill="#b14bf4" d="M 1.53,-0.31 Q 1.53,-0.31 2.17,3.00 2.82,6.32 5.05,11.43 7.29,16.55 13.12,24.51 18.95,32.47 23.67,38.85 28.39,45.23 32.79,50.79 37.19,56.35 42.33,62.87 47.46,69.40 50.95,73.90 54.44,78.40 57.03,81.86 59.62,85.33 62.31,89.07 65.01,92.81 66.67,95.08 68.33,97.34 69.32,98.88 70.31,100.42 70.93,101.47 71.54,102.52 72.38,104.63 73.23,106.74 73.24,107.03 73.26,107.32 73.18,107.60 73.10,107.89 72.93,108.13 72.77,108.37 72.53,108.55 72.30,108.72 72.02,108.82 71.74,108.91 71.45,108.91 71.15,108.91 70.88,108.81 70.60,108.72 70.37,108.54 70.13,108.36 69.97,108.12 69.81,107.87 69.73,107.59 69.65,107.31 69.67,107.01 69.69,106.72 69.80,106.45 69.91,106.18 70.10,105.95 70.29,105.73 70.54,105.58 70.79,105.43 71.08,105.37 71.36,105.31 71.66,105.34 71.95,105.37 72.21,105.50 72.48,105.62 72.69,105.82 72.90,106.03 73.04,106.29 73.18,106.55 73.22,106.84 73.27,107.13 73.22,107.41 73.17,107.70 73.03,107.96 72.89,108.22 72.68,108.42 72.47,108.62 72.20,108.74 71.93,108.87 71.64,108.90 71.35,108.93 71.06,108.86 70.78,108.80 70.53,108.65 70.27,108.49 70.09,108.27 69.90,108.05 69.79,107.77 69.68,107.50 69.68,107.50 69.68,107.50 69.07,105.72 68.45,103.94 68.12,102.92 67.78,101.90 66.98,100.40 66.19,98.90 64.53,96.63 62.86,94.37 60.17,90.65 57.48,86.93 54.90,83.48 52.32,80.04 48.83,75.56 45.35,71.07 40.20,64.56 35.05,58.05 30.61,52.46 26.17,46.88 21.42,40.51 16.67,34.14 10.66,25.93 4.65,17.72 2.27,12.33 -0.10,6.93 -0.81,3.62 -1.53,0.31 -1.54,0.12 -1.56,-0.06 -1.53,-0.24 -1.50,-0.43 -1.42,-0.60 -1.35,-0.77 -1.24,-0.93 -1.12,-1.08 -0.98,-1.20 -0.83,-1.31 -0.66,-1.40 -0.49,-1.48 -0.31,-1.51 -0.12,-1.55 0.06,-1.54 0.24,-1.54 0.43,-1.48 0.61,-1.43 0.77,-1.34 0.93,-1.24 1.07,-1.11 1.20,-0.98 1.30,-0.83 1.41,-0.67 1.47,-0.49 1.53,-0.31 1.53,-0.31 L 1.53,-0.31 Z"></path></g><g transform="translate(532.3201684594427 333.3414503537081) rotate(0 126.66463277679873 31.150111751455114)" stroke="none"><path fill="#b14bf4" d="M 0.02,-1.56 Q 0.02,-1.56 3.62,-1.45 7.22,-1.35 15.77,-0.10 24.32,1.14 37.15,4.00 49.98,6.86 65.56,10.82 81.14,14.79 101.22,20.22 121.31,25.65 133.51,29.01 145.70,32.37 155.39,35.04 165.08,37.71 171.82,39.58 178.56,41.45 183.24,42.90 187.92,44.36 197.35,46.59 206.78,48.82 213.92,50.30 221.07,51.77 226.74,52.89 232.42,54.01 236.52,54.93 240.63,55.86 243.34,56.59 246.06,57.33 247.80,57.83 249.54,58.33 250.61,58.55 251.69,58.78 253.35,60.29 255.00,61.81 255.04,62.09 255.07,62.37 255.01,62.64 254.95,62.92 254.81,63.16 254.67,63.41 254.46,63.59 254.24,63.78 253.98,63.89 253.72,64.00 253.44,64.01 253.16,64.03 252.88,63.96 252.61,63.89 252.38,63.73 252.14,63.58 251.97,63.36 251.79,63.13 251.70,62.87 251.60,62.60 251.60,62.32 251.60,62.03 251.68,61.77 251.77,61.50 251.94,61.27 252.11,61.04 252.34,60.88 252.57,60.72 252.84,60.64 253.11,60.56 253.40,60.57 253.68,60.58 253.94,60.69 254.21,60.79 254.42,60.97 254.64,61.15 254.79,61.39 254.94,61.63 255.00,61.90 255.07,62.18 255.04,62.46 255.01,62.74 254.90,63.00 254.78,63.26 254.59,63.46 254.40,63.67 254.15,63.81 253.90,63.94 253.62,63.99 253.35,64.04 253.07,64.00 252.79,63.96 252.54,63.83 252.28,63.70 252.09,63.50 251.89,63.29 251.77,63.04 251.65,62.78 251.65,62.78 251.65,62.78 251.15,62.39 250.65,62.00 249.64,61.55 248.62,61.10 247.00,60.49 245.37,59.87 242.71,59.15 240.05,58.43 235.98,57.51 231.91,56.60 226.22,55.48 220.53,54.36 213.35,52.88 206.17,51.40 196.65,49.14 187.13,46.89 182.49,45.45 177.85,44.02 171.11,42.15 164.37,40.29 154.68,37.63 144.99,34.97 132.79,31.63 120.60,28.28 100.53,22.87 80.46,17.47 64.92,13.54 49.37,9.61 36.64,6.81 23.91,4.00 15.54,2.81 7.16,1.62 3.56,1.59 -0.02,1.56 -0.21,1.53 -0.40,1.50 -0.57,1.43 -0.75,1.36 -0.90,1.25 -1.05,1.14 -1.18,1.00 -1.30,0.86 -1.38,0.69 -1.47,0.52 -1.51,0.34 -1.55,0.15 -1.55,-0.02 -1.54,-0.21 -1.49,-0.39 -1.44,-0.58 -1.35,-0.74 -1.26,-0.91 -1.14,-1.05 -1.01,-1.18 -0.85,-1.29 -0.69,-1.39 -0.52,-1.46 -0.34,-1.52 -0.15,-1.54 0.02,-1.56 0.02,-1.56 L 0.02,-1.56 Z"></path></g><g transform="translate(531.219181897554 259.5210231223548) rotate(0 54.30851329855557 7.863480482218165)" stroke="none"><path fill="#b14bf4" d="M -0.98,67.29 Q -0.98,67.29 1.66,65.17 4.31,63.04 14.12,54.89 23.94,46.74 32.19,39.47 40.44,32.21 49.24,24.48 58.04,16.75 65.57,9.63 73.10,2.52 78.81,-3.23 84.52,-8.98 88.08,-12.71 91.64,-16.44 93.72,-18.88 95.80,-21.32 97.14,-22.95 98.48,-24.58 99.10,-25.77 99.71,-26.95 100.30,-28.20 100.88,-29.45 101.30,-31.02 101.72,-32.59 101.73,-33.69 101.73,-34.79 101.98,-36.42 102.23,-38.04 102.41,-39.16 102.58,-40.28 102.89,-41.56 103.19,-42.85 103.44,-44.10 103.69,-45.35 104.00,-46.68 104.31,-48.01 105.15,-50.18 105.98,-52.34 106.11,-52.64 106.23,-52.95 106.42,-53.21 106.62,-53.48 106.87,-53.69 107.12,-53.90 107.42,-54.05 107.71,-54.19 108.03,-54.26 108.35,-54.33 108.68,-54.33 109.01,-54.32 109.33,-54.23 109.64,-54.14 109.93,-53.98 110.22,-53.82 110.46,-53.60 110.70,-53.37 110.88,-53.10 111.06,-52.82 111.17,-52.51 111.28,-52.20 111.31,-51.88 111.34,-51.55 111.29,-51.22 111.24,-50.90 111.26,-50.98 111.28,-51.06 111.12,-50.65 110.96,-50.24 110.68,-49.90 110.40,-49.56 110.03,-49.33 109.65,-49.10 109.22,-49.00 108.79,-48.90 108.35,-48.94 107.91,-48.98 107.51,-49.16 107.11,-49.35 106.78,-49.64 106.46,-49.94 106.25,-50.33 106.04,-50.72 105.96,-51.15 105.88,-51.59 105.95,-52.03 106.02,-52.46 106.22,-52.85 106.42,-53.25 106.74,-53.55 107.06,-53.86 107.46,-54.05 107.85,-54.24 108.29,-54.29 108.73,-54.34 109.16,-54.25 109.59,-54.16 109.97,-53.94 110.35,-53.72 110.64,-53.38 110.93,-53.05 111.10,-52.64 111.27,-52.23 111.30,-51.79 111.33,-51.35 111.21,-50.93 111.10,-50.50 110.86,-50.13 110.61,-49.77 110.26,-49.49 109.92,-49.22 109.50,-49.08 109.08,-48.93 108.64,-48.93 108.20,-48.92 107.78,-49.06 107.36,-49.20 107.01,-49.46 106.65,-49.72 106.40,-50.08 106.15,-50.45 106.03,-50.87 105.90,-51.29 105.94,-51.82 105.98,-52.34 106.11,-52.64 106.23,-52.95 106.42,-53.21 106.62,-53.48 106.87,-53.69 107.12,-53.90 107.42,-54.05 107.71,-54.19 108.03,-54.26 108.35,-54.33 108.68,-54.33 109.01,-54.32 109.33,-54.23 109.64,-54.14 109.93,-53.98 110.22,-53.82 110.46,-53.60 110.70,-53.37 110.88,-53.10 111.06,-52.82 111.17,-52.51 111.28,-52.20 111.31,-51.88 111.34,-51.55 111.29,-51.22 111.24,-50.90 110.35,-48.85 109.45,-46.80 109.16,-45.56 108.86,-44.33 108.59,-42.95 108.32,-41.58 108.03,-40.46 107.74,-39.34 107.27,-37.29 106.81,-35.24 106.46,-34.02 106.12,-32.81 105.56,-31.26 104.99,-29.71 104.46,-28.74 103.92,-27.78 103.13,-26.53 102.34,-25.27 101.44,-24.09 100.54,-22.90 99.18,-21.25 97.83,-19.59 95.70,-17.09 93.58,-14.59 90.01,-10.84 86.44,-7.08 80.71,-1.29 74.98,4.50 67.42,11.66 59.87,18.83 51.09,26.57 42.31,34.32 34.05,41.64 25.79,48.96 16.00,57.16 6.20,65.36 3.59,67.53 0.98,69.71 0.83,69.81 0.67,69.91 0.49,69.97 0.31,70.03 0.12,70.05 -0.06,70.06 -0.24,70.03 -0.43,70.00 -0.60,69.93 -0.78,69.85 -0.93,69.74 -1.08,69.63 -1.20,69.48 -1.32,69.34 -1.40,69.17 -1.48,68.99 -1.51,68.81 -1.55,68.63 -1.55,68.44 -1.54,68.25 -1.49,68.07 -1.43,67.89 -1.34,67.72 -1.25,67.56 -1.11,67.42 -0.98,67.29 -0.98,67.29 L -0.98,67.29 Z"></path></g><g transform="translate(355.7986550812087 10) rotate(0 122.61595153808594 22.5)"><text x="122.61595153808594" y="0" font-family="Virgil, Segoe UI Emoji" font-size="36px" fill="#b14bf4" text-anchor="middle" style="white-space: pre;" direction="ltr" dominant-baseline="text-before-edge">Pillar Content</text></g><g transform="translate(690.8401166920816 162.05384067878913) rotate(0 44.41448974609375 24.397529935800094)"><text x="44.41448974609375" y="0" font-family="Virgil, Segoe UI Emoji" font-size="19.518023948640092px" fill="#b14bf4" text-anchor="middle" style="white-space: pre;" direction="ltr" dominant-baseline="text-before-edge">Auxiliary </text><text x="44.41448974609375" y="24.397529935800115" font-family="Virgil, Segoe UI Emoji" font-size="19.518023948640092px" fill="#b14bf4" text-anchor="middle" style="white-space: pre;" direction="ltr" dominant-baseline="text-before-edge">Content</text></g><g transform="translate(655.209969454915 545.8156895851345) rotate(0 44.41448974609375 24.397529935800122)"><text x="44.41448974609375" y="0" font-family="Virgil, Segoe UI Emoji" font-size="19.518023948640092px" fill="#b14bf4" text-anchor="middle" style="white-space: pre;" direction="ltr" dominant-baseline="text-before-edge">Auxiliary </text><text x="44.41448974609375" y="24.397529935800115" font-family="Virgil, Segoe UI Emoji" font-size="19.518023948640092px" fill="#b14bf4" text-anchor="middle" style="white-space: pre;" direction="ltr" dominant-baseline="text-before-edge">Content</text></g><g transform="translate(356.657232516072 562.317890312636) rotate(0 44.41448974609375 24.397529935800122)"><text x="44.41448974609375" y="0" font-family="Virgil, Segoe UI Emoji" font-size="19.518023948640092px" fill="#b14bf4" text-anchor="middle" style="white-space: pre;" direction="ltr" dominant-baseline="text-before-edge">Auxiliary </text><text x="44.41448974609375" y="24.397529935800115" font-family="Virgil, Segoe UI Emoji" font-size="19.518023948640092px" fill="#b14bf4" text-anchor="middle" style="white-space: pre;" direction="ltr" dominant-baseline="text-before-edge">Content</text></g><g transform="translate(10 321.88862666420823) rotate(0 44.41448974609375 24.397529935800122)"><text x="44.41448974609375" y="0" font-family="Virgil, Segoe UI Emoji" font-size="19.518023948640092px" fill="#b14bf4" text-anchor="middle" style="white-space: pre;" direction="ltr" dominant-baseline="text-before-edge">Auxiliary </text><text x="44.41448974609375" y="24.397529935800115" font-family="Virgil, Segoe UI Emoji" font-size="19.518023948640092px" fill="#b14bf4" text-anchor="middle" style="white-space: pre;" direction="ltr" dominant-baseline="text-before-edge">Content</text></g><g transform="translate(180.0660741958577 107.87525442212291) rotate(0 44.41448974609375 24.397529935800094)"><text x="44.41448974609375" y="0" font-family="Virgil, Segoe UI Emoji" font-size="19.518023948640092px" fill="#b14bf4" text-anchor="middle" style="white-space: pre;" direction="ltr" dominant-baseline="text-before-edge">Auxiliary </text><text x="44.41448974609375" y="24.397529935800115" font-family="Virgil, Segoe UI Emoji" font-size="19.518023948640092px" fill="#b14bf4" text-anchor="middle" style="white-space: pre;" direction="ltr" dominant-baseline="text-before-edge">Content</text></g><g transform="translate(294.532112427834 648.2082098639439) rotate(0 186.44393920898438 22.5)"><text x="186.44393920898438" y="0" font-family="Virgil, Segoe UI Emoji" font-size="36px" fill="#b14bf4" text-anchor="middle" style="white-space: pre;" direction="ltr" dominant-baseline="text-before-edge">Effective SEO Strategy</text></g><g transform="translate(849.3450008897911 358.10504815202904) rotate(0 44.41448974609375 24.397529935800122)"><text x="44.41448974609375" y="0" font-family="Virgil, Segoe UI Emoji" font-size="19.518023948640092px" fill="#b14bf4" text-anchor="middle" style="white-space: pre;" direction="ltr" dominant-baseline="text-before-edge">Auxiliary </text><text x="44.41448974609375" y="24.397529935800115" font-family="Virgil, Segoe UI Emoji" font-size="19.518023948640092px" fill="#b14bf4" text-anchor="middle" style="white-space: pre;" direction="ltr" dominant-baseline="text-before-edge">Content</text></g><g transform="translate(168.9481490144076 347.13090242770704) rotate(0 -3.320150298253054 15.30719070058393)" stroke="none"><path fill="#b14bf4" d="M 2.06,1.03 Q 2.06,1.03 0.85,3.14 -0.34,5.26 -1.32,7.00 -2.29,8.75 -3.53,10.71 -4.76,12.68 -5.39,14.00 -6.02,15.32 -6.45,16.34 -6.88,17.36 -7.48,18.76 -8.07,20.17 -8.66,21.33 -9.24,22.48 -10.27,21.23 -11.30,19.97 -9.08,19.89 -6.87,19.81 -5.33,20.59 -3.79,21.37 -2.43,22.26 -1.08,23.14 0.06,23.83 1.21,24.52 2.17,25.06 3.13,25.61 5.10,26.88 7.07,28.15 7.42,28.45 7.78,28.75 8.01,29.15 8.25,29.55 8.35,30.00 8.45,30.46 8.40,30.92 8.35,31.38 8.15,31.80 7.96,32.22 7.64,32.56 7.32,32.90 6.91,33.12 6.50,33.33 6.04,33.41 5.58,33.48 5.12,33.41 4.66,33.33 4.25,33.11 3.84,32.89 3.52,32.56 3.20,32.22 3.01,31.80 2.81,31.37 2.76,30.91 2.71,30.45 2.81,30.00 2.92,29.54 3.16,29.14 3.40,28.75 3.75,28.45 4.10,28.15 4.54,27.97 4.97,27.80 5.43,27.78 5.90,27.75 6.35,27.88 6.79,28.00 7.18,28.26 7.56,28.53 7.84,28.90 8.12,29.27 8.27,29.71 8.42,30.15 8.42,30.61 8.42,31.08 8.27,31.52 8.12,31.96 7.84,32.33 7.56,32.70 7.17,32.96 6.79,33.22 6.34,33.34 5.89,33.47 5.43,33.44 4.96,33.41 4.53,33.24 4.10,33.07 4.10,33.07 4.10,33.07 2.21,31.71 0.33,30.35 -0.59,29.78 -1.53,29.21 -2.74,28.52 -3.95,27.83 -5.18,27.13 -6.41,26.43 -7.98,25.74 -9.54,25.05 -11.21,24.68 -12.89,24.31 -13.38,22.20 -13.88,20.08 -13.04,19.05 -12.20,18.01 -11.36,16.74 -10.52,15.47 -9.94,14.52 -9.35,13.56 -8.58,12.24 -7.81,10.91 -6.76,8.94 -5.71,6.96 -4.85,5.20 -4.00,3.44 -3.03,1.20 -2.06,-1.03 -1.90,-1.26 -1.75,-1.49 -1.55,-1.68 -1.34,-1.87 -1.10,-2.00 -0.85,-2.13 -0.59,-2.21 -0.32,-2.28 -0.04,-2.28 0.23,-2.29 0.50,-2.23 0.77,-2.17 1.02,-2.04 1.27,-1.92 1.48,-1.74 1.69,-1.56 1.85,-1.33 2.01,-1.11 2.12,-0.85 2.22,-0.59 2.26,-0.32 2.30,-0.04 2.27,0.23 2.24,0.50 2.15,0.76 2.06,1.03 2.06,1.03 L 2.06,1.03 Z"></path></g><g transform="translate(341.4240583976939 510.24921339124205) rotate(0 8.682002970868893 10.383829874994376)" stroke="none"><path fill="#b14bf4" d="M 2.52,0 Q 2.52,0 2.48,1.60 2.45,3.20 2.46,4.55 2.48,5.90 2.42,7.64 2.37,9.37 2.40,10.67 2.42,11.98 2.59,13.66 2.75,15.35 2.97,16.87 3.20,18.40 1.52,18.08 -0.15,17.76 1.68,17.36 3.52,16.97 5.10,16.80 6.68,16.63 7.93,16.55 9.18,16.46 10.47,16.41 11.76,16.36 14.26,15.57 16.77,14.77 17.32,14.77 17.86,14.76 18.38,14.93 18.90,15.09 19.34,15.42 19.77,15.74 20.08,16.19 20.40,16.63 20.55,17.16 20.70,17.68 20.68,18.22 20.66,18.77 20.46,19.28 20.26,19.79 19.92,20.20 19.57,20.62 19.11,20.91 18.64,21.20 18.11,21.32 17.58,21.44 17.04,21.39 16.50,21.34 16.00,21.12 15.51,20.90 15.11,20.53 14.71,20.16 14.44,19.68 14.18,19.20 14.09,18.66 13.99,18.13 14.07,17.59 14.16,17.05 14.41,16.57 14.65,16.08 15.04,15.70 15.44,15.32 15.93,15.09 16.42,14.85 16.96,14.79 17.50,14.72 18.03,14.83 18.57,14.94 19.04,15.22 19.51,15.49 19.86,15.91 20.22,16.32 20.43,16.82 20.64,17.32 20.67,17.87 20.71,18.41 20.57,18.94 20.43,19.46 20.13,19.92 19.83,20.37 19.40,20.71 18.97,21.04 18.46,21.22 17.94,21.40 17.94,21.40 17.95,21.40 15.72,22.03 13.49,22.65 12.26,22.79 11.04,22.94 9.72,22.91 8.40,22.88 7.07,22.94 5.75,23.01 4.21,22.97 2.68,22.93 1.36,23.04 0.04,23.15 -1.11,22.36 -2.26,21.56 -2.35,20.06 -2.45,18.56 -2.44,17.17 -2.44,15.78 -2.43,13.88 -2.42,11.98 -2.40,10.67 -2.37,9.37 -2.42,7.64 -2.48,5.90 -2.46,4.55 -2.45,3.20 -2.48,1.60 -2.52,0 -2.48,-0.30 -2.44,-0.60 -2.33,-0.88 -2.23,-1.17 -2.05,-1.42 -1.88,-1.67 -1.65,-1.87 -1.43,-2.07 -1.16,-2.21 -0.89,-2.35 -0.59,-2.42 -0.30,-2.50 0.00,-2.50 0.30,-2.50 0.59,-2.42 0.89,-2.35 1.16,-2.21 1.43,-2.07 1.65,-1.87 1.88,-1.67 2.05,-1.42 2.23,-1.17 2.33,-0.88 2.44,-0.60 2.48,-0.30 2.52,0.00 2.52,0.00 L 2.52,0 Z"></path></g><g transform="translate(588.3985712402048 517.7465075801408) rotate(0 10.36913255736249 -13.648296585909975)" stroke="none"><path fill="#b14bf4" d="M 0,-2.42 Q 0,-2.42 1.35,-2.43 2.70,-2.45 3.94,-2.47 5.18,-2.50 6.46,-2.51 7.75,-2.53 10.05,-2.37 12.34,-2.22 13.86,-2.23 15.39,-2.24 17.06,-2.36 18.74,-2.48 17.63,-3.91 16.53,-5.35 16.18,-7.04 15.84,-8.73 15.58,-10.39 15.32,-12.06 15.14,-13.70 14.97,-15.34 14.89,-16.93 14.80,-18.52 14.74,-19.89 14.69,-21.25 14.60,-24.27 14.51,-27.28 14.58,-27.70 14.65,-28.12 14.85,-28.50 15.04,-28.88 15.35,-29.17 15.66,-29.47 16.05,-29.65 16.43,-29.83 16.85,-29.87 17.28,-29.92 17.69,-29.83 18.11,-29.74 18.48,-29.52 18.84,-29.30 19.12,-28.98 19.39,-28.66 19.55,-28.26 19.71,-27.87 19.74,-27.44 19.76,-27.02 19.65,-26.60 19.54,-26.19 19.30,-25.84 19.06,-25.49 18.72,-25.23 18.38,-24.97 17.98,-24.83 17.58,-24.70 17.15,-24.69 16.73,-24.69 16.32,-24.83 15.92,-24.96 15.58,-25.22 15.24,-25.48 15.00,-25.83 14.76,-26.18 14.64,-26.59 14.53,-27.00 14.55,-27.42 14.57,-27.85 14.73,-28.25 14.88,-28.64 15.16,-28.97 15.43,-29.29 15.80,-29.51 16.16,-29.73 16.58,-29.83 16.99,-29.92 17.42,-29.87 17.84,-29.83 18.23,-29.65 18.61,-29.47 18.92,-29.18 19.23,-28.89 19.43,-28.51 19.64,-28.14 19.71,-27.72 19.78,-27.30 19.78,-27.30 19.78,-27.30 19.75,-24.35 19.72,-21.41 19.75,-20.13 19.78,-18.84 19.89,-17.40 19.99,-15.96 20.21,-14.48 20.42,-13.01 20.75,-11.51 21.08,-10.01 21.51,-8.52 21.94,-7.03 22.36,-5.76 22.78,-4.49 23.10,-2.67 23.43,-0.84 22.66,0.50 21.89,1.85 20.31,2.16 18.74,2.48 17.06,2.36 15.39,2.24 13.86,2.23 12.34,2.22 10.05,2.37 7.75,2.53 6.46,2.51 5.18,2.50 3.94,2.47 2.70,2.45 1.35,2.43 0,2.42 -0.28,2.38 -0.57,2.35 -0.85,2.24 -1.12,2.14 -1.36,1.97 -1.60,1.81 -1.79,1.59 -1.99,1.37 -2.12,1.11 -2.26,0.85 -2.33,0.57 -2.40,0.29 -2.40,-0.00 -2.40,-0.29 -2.33,-0.57 -2.26,-0.85 -2.12,-1.11 -1.99,-1.37 -1.79,-1.59 -1.60,-1.81 -1.36,-1.97 -1.12,-2.14 -0.85,-2.24 -0.57,-2.35 -0.28,-2.38 0.00,-2.42 0.00,-2.42 L 0,-2.42 Z"></path></g><g transform="translate(779.335886281743 377.477976364445) rotate(0 -0.7424769925108876 14.709106105403066)" stroke="none"><path fill="#b14bf4" d="M 2.37,-0.87 Q 2.37,-0.87 2.92,0.77 3.46,2.43 3.95,3.58 4.43,4.73 4.98,5.80 5.54,6.86 6.36,8.44 7.18,10.02 7.67,11.36 8.16,12.70 8.96,13.84 9.76,14.98 9.95,16.06 10.14,17.14 9.85,18.40 9.55,19.67 8.40,20.55 7.24,21.44 5.65,22.02 4.07,22.61 2.44,23.37 0.81,24.13 -0.36,24.82 -1.54,25.50 -2.46,26.22 -3.39,26.95 -4.34,28.88 -5.30,30.81 -5.60,31.28 -5.91,31.75 -6.35,32.09 -6.79,32.44 -7.31,32.62 -7.84,32.81 -8.40,32.82 -8.96,32.83 -9.49,32.66 -10.02,32.49 -10.47,32.16 -10.92,31.82 -11.24,31.37 -11.56,30.91 -11.72,30.37 -11.87,29.84 -11.85,29.28 -11.83,28.72 -11.63,28.20 -11.43,27.68 -11.08,27.25 -10.72,26.82 -10.25,26.52 -9.78,26.23 -9.23,26.10 -8.69,25.97 -8.14,26.02 -7.58,26.08 -7.07,26.30 -6.56,26.53 -6.15,26.91 -5.74,27.28 -5.47,27.77 -5.20,28.26 -5.10,28.81 -5.00,29.36 -5.08,29.91 -5.16,30.46 -5.42,30.96 -5.67,31.46 -6.07,31.85 -6.47,32.24 -6.97,32.48 -7.48,32.72 -8.03,32.79 -8.58,32.86 -9.13,32.75 -9.68,32.64 -10.16,32.36 -10.64,32.08 -11.01,31.66 -11.38,31.24 -11.59,30.72 -11.81,30.21 -11.85,29.65 -11.89,29.09 -11.74,28.55 -11.60,28.01 -11.60,28.01 -11.60,28.01 -10.57,26.24 -9.53,24.46 -9.00,23.54 -8.47,22.62 -7.66,21.90 -6.85,21.17 -5.89,20.54 -4.94,19.91 -3.53,19.13 -2.13,18.35 -1.18,17.86 -0.24,17.37 1.73,17.09 3.71,16.82 3.22,15.84 2.74,14.85 2.48,13.44 2.22,12.02 1.65,10.56 1.07,9.10 0.46,7.82 -0.15,6.54 -0.60,5.32 -1.06,4.10 -1.72,2.48 -2.37,0.87 -2.44,0.57 -2.51,0.28 -2.51,-0.02 -2.51,-0.33 -2.43,-0.62 -2.36,-0.92 -2.21,-1.19 -2.07,-1.46 -1.86,-1.68 -1.66,-1.91 -1.40,-2.08 -1.15,-2.25 -0.86,-2.36 -0.58,-2.46 -0.27,-2.50 0.02,-2.53 0.32,-2.49 0.63,-2.45 0.91,-2.34 1.20,-2.23 1.45,-2.05 1.70,-1.88 1.90,-1.65 2.10,-1.41 2.24,-1.14 2.37,-0.87 2.37,-0.87 L 2.37,-0.87 Z"></path></g><g transform="translate(623.393584393993 221.3157833584346) rotate(0 6.051051888711072 12.689559062530009)" stroke="none"><path fill="#b14bf4" d="M 0.20,-2.49 Q 0.20,-2.49 1.85,-2.32 3.50,-2.14 4.72,-1.97 5.93,-1.81 7.29,-1.47 8.65,-1.13 9.73,-1.05 10.81,-0.97 12.40,-0.47 13.98,0.02 14.48,1.13 14.97,2.24 15.04,3.47 15.11,4.69 15.11,6.75 15.11,8.82 15.06,10.30 15.00,11.78 14.80,14.70 14.61,17.61 14.57,19.25 14.53,20.89 14.57,23.13 14.60,25.37 14.53,25.77 14.47,26.17 14.28,26.53 14.09,26.89 13.79,27.17 13.50,27.44 13.13,27.61 12.77,27.78 12.36,27.83 11.96,27.87 11.57,27.78 11.17,27.70 10.82,27.49 10.48,27.28 10.22,26.97 9.95,26.66 9.80,26.29 9.65,25.91 9.63,25.51 9.61,25.10 9.72,24.71 9.83,24.32 10.05,23.99 10.28,23.65 10.60,23.41 10.93,23.16 11.31,23.03 11.69,22.91 12.10,22.91 12.50,22.91 12.89,23.03 13.27,23.16 13.59,23.41 13.91,23.65 14.14,23.99 14.37,24.32 14.48,24.71 14.58,25.10 14.56,25.51 14.54,25.91 14.39,26.29 14.24,26.66 13.98,26.97 13.72,27.28 13.37,27.49 13.02,27.70 12.63,27.79 12.23,27.87 11.83,27.83 11.43,27.78 11.06,27.61 10.69,27.44 10.40,27.17 10.11,26.89 9.92,26.53 9.73,26.17 9.66,25.77 9.60,25.37 9.60,25.37 9.60,25.37 9.63,23.13 9.66,20.89 9.62,19.25 9.59,17.61 9.39,14.70 9.19,11.78 9.14,10.30 9.08,8.82 9.07,7.64 9.05,6.47 9.62,5.43 10.19,4.39 8.77,4.07 7.36,3.75 5.23,3.22 3.10,2.68 1.45,2.59 -0.20,2.49 -0.50,2.43 -0.79,2.37 -1.07,2.24 -1.34,2.11 -1.57,1.92 -1.81,1.73 -1.99,1.49 -2.17,1.24 -2.29,0.97 -2.40,0.69 -2.45,0.39 -2.50,0.09 -2.47,-0.20 -2.45,-0.50 -2.35,-0.79 -2.26,-1.07 -2.10,-1.33 -1.93,-1.58 -1.72,-1.79 -1.50,-2.00 -1.23,-2.15 -0.97,-2.30 -0.68,-2.39 -0.39,-2.47 -0.09,-2.48 0.20,-2.49 0.20,-2.49 L 0.20,-2.49 Z"></path></g><g transform="translate(351.70255749632645 182.48232074978546) rotate(0 -11.747837183670299 -0.46906751674259795)" stroke="none"><path fill="#b14bf4" d="M 2.36,2.47 Q 2.36,2.47 -1.34,2.49 -2.68,2.50 -4.48,2.43 -6.29,2.36 -7.62,2.38 -8.95,2.40 -10.16,2.43 -11.37,2.47 -13.24,2.22 -15.10,1.97 -16.18,1.85 -17.26,1.73 -18.33,1.74 -19.40,1.74 -21.38,1.73 -23.37,1.71 -23.68,1.65 -24.00,1.59 -24.29,1.46 -24.58,1.33 -24.83,1.14 -25.09,0.94 -25.29,0.69 -25.48,0.44 -25.62,0.15 -25.75,-0.13 -25.81,-0.45 -25.87,-0.76 -25.85,-1.08 -25.83,-1.40 -25.74,-1.71 -25.64,-2.01 -25.48,-2.29 -25.32,-2.56 -25.09,-2.79 -24.87,-3.01 -24.59,-3.18 -24.32,-3.35 -24.01,-3.44 -23.71,-3.54 -23.39,-3.56 -23.07,-3.58 -22.72,-3.52 -22.38,-3.45 -22.00,-3.25 -21.62,-3.05 -21.32,-2.74 -21.03,-2.43 -20.85,-2.04 -20.66,-1.65 -20.62,-1.22 -20.57,-0.80 -20.66,-0.38 -20.75,0.03 -20.97,0.40 -21.19,0.77 -21.52,1.05 -21.85,1.33 -22.24,1.49 -22.64,1.65 -23.07,1.67 -23.50,1.70 -23.91,1.58 -24.33,1.47 -24.68,1.23 -25.04,0.99 -25.30,0.65 -25.56,0.31 -25.70,-0.09 -25.84,-0.50 -25.84,-0.93 -25.84,-1.36 -25.70,-1.76 -25.57,-2.17 -25.31,-2.51 -25.05,-2.86 -24.69,-3.10 -24.34,-3.34 -23.93,-3.46 -23.51,-3.57 -23.08,-3.55 -22.65,-3.53 -22.26,-3.37 -21.86,-3.21 -21.53,-2.93 -21.20,-2.66 -20.98,-2.29 -20.76,-1.92 -20.66,-1.50 -20.57,-1.08 -20.62,-0.66 -20.66,-0.23 -20.84,0.15 -21.02,0.54 -21.31,0.85 -21.61,1.17 -21.99,1.37 -22.37,1.57 -22.79,1.64 -23.21,1.71 -23.29,1.71 -23.37,1.71 -23.68,1.65 -24.00,1.59 -24.29,1.46 -24.58,1.33 -24.83,1.14 -25.09,0.94 -25.29,0.69 -25.48,0.44 -25.62,0.15 -25.75,-0.13 -25.81,-0.45 -25.87,-0.76 -25.85,-1.08 -25.83,-1.40 -25.74,-1.71 -25.64,-2.01 -25.48,-2.29 -25.32,-2.56 -25.09,-2.79 -24.87,-3.01 -24.59,-3.18 -24.32,-3.35 -24.01,-3.44 -23.71,-3.54 -23.39,-3.56 -23.07,-3.58 -20.51,-3.48 -17.95,-3.38 -16.27,-3.05 -14.59,-2.72 -12.98,-2.59 -11.37,-2.47 -10.16,-2.43 -8.95,-2.40 -7.62,-2.38 -6.29,-2.36 -4.48,-2.43 -2.68,-2.50 -1.34,-2.49 -2.36,-2.47 0.29,-2.44 0.59,-2.40 0.87,-2.30 1.15,-2.19 1.39,-2.02 1.64,-1.85 1.84,-1.63 2.04,-1.40 2.17,-1.14 2.31,-0.87 2.38,-0.58 2.46,-0.29 2.46,0.00 2.46,0.29 2.38,0.58 2.31,0.87 2.17,1.14 2.04,1.40 1.84,1.63 1.64,1.85 1.39,2.02 1.15,2.19 0.87,2.30 0.59,2.40 0.29,2.44 -0.00,2.47 -0.00,2.47 L 2.36,2.47 Z"></path></g><g transform="translate(328.47808363290756 181.54418571630026) rotate(0 0 11.502378856612722)" stroke="none"><path fill="#b14bf4" d="M 2.31,0 Q 2.31,0 2.18,2.93 2.05,5.87 1.95,8.23 1.85,10.58 1.86,12.34 1.87,14.10 1.95,15.33 2.03,16.55 2.10,17.70 2.16,18.84 2.17,20.84 2.17,22.84 2.11,23.19 2.05,23.53 1.89,23.84 1.72,24.16 1.47,24.40 1.21,24.64 0.90,24.79 0.58,24.93 0.23,24.97 -0.11,25.01 -0.46,24.93 -0.80,24.86 -1.10,24.68 -1.40,24.50 -1.63,24.23 -1.86,23.96 -1.99,23.63 -2.12,23.31 -2.14,22.96 -2.15,22.61 -2.06,22.27 -1.97,21.93 -1.77,21.64 -1.57,21.35 -1.29,21.13 -1.01,20.92 -0.68,20.81 -0.35,20.70 0.00,20.70 0.35,20.70 0.68,20.81 1.01,20.92 1.29,21.13 1.57,21.35 1.77,21.64 1.97,21.93 2.06,22.27 2.15,22.61 2.14,22.96 2.12,23.31 1.99,23.63 1.86,23.96 1.63,24.23 1.40,24.50 1.10,24.68 0.80,24.86 0.46,24.93 0.11,25.01 -0.23,24.97 -0.58,24.93 -0.90,24.79 -1.21,24.64 -1.47,24.40 -1.72,24.15 -1.89,23.84 -2.05,23.53 -2.11,23.19 -2.17,22.84 -2.17,22.84 -2.17,22.84 -2.17,20.84 -2.16,18.84 -2.10,17.70 -2.03,16.55 -1.95,15.33 -1.87,14.10 -1.86,12.34 -1.85,10.58 -1.95,8.23 -2.05,5.87 -2.18,2.93 -2.31,0 -2.28,-0.27 -2.25,-0.55 -2.15,-0.81 -2.05,-1.07 -1.89,-1.30 -1.73,-1.53 -1.52,-1.72 -1.31,-1.90 -1.06,-2.03 -0.82,-2.16 -0.55,-2.23 -0.27,-2.30 0.00,-2.30 0.27,-2.30 0.55,-2.23 0.82,-2.16 1.07,-2.03 1.31,-1.90 1.52,-1.72 1.73,-1.53 1.89,-1.30 2.05,-1.07 2.15,-0.81 2.25,-0.55 2.28,-0.27 2.31,0.00 2.31,0.00 L 2.31,0 Z"></path></g><g transform="translate(335.80495892450324 200.90072800556095) rotate(0 -3.007919782609008 -10.822496690087746)" stroke="none"><path fill="#b14bf4" d="M -2.20,0.71 Q -2.20,0.71 -2.85,-1.74 -3.51,-4.19 -4.10,-5.85 -4.69,-7.50 -5.23,-8.80 -5.77,-10.10 -6.19,-11.16 -6.62,-12.21 -7.01,-14.26 -7.40,-16.30 -7.78,-18.88 -8.17,-21.45 -8.14,-21.80 -8.11,-22.15 -7.98,-22.47 -7.84,-22.80 -7.61,-23.06 -7.38,-23.32 -7.07,-23.49 -6.77,-23.67 -6.42,-23.74 -6.08,-23.80 -5.73,-23.76 -5.39,-23.71 -5.07,-23.56 -4.76,-23.40 -4.51,-23.16 -4.26,-22.91 -4.10,-22.60 -3.94,-22.29 -3.90,-21.94 -3.85,-21.59 -3.91,-21.25 -3.98,-20.90 -4.15,-20.60 -4.32,-20.29 -4.58,-20.06 -4.84,-19.82 -5.16,-19.68 -5.48,-19.54 -5.83,-19.51 -6.18,-19.48 -6.52,-19.56 -6.86,-19.65 -7.15,-19.83 -7.45,-20.02 -7.67,-20.29 -7.89,-20.57 -8.01,-20.89 -8.13,-21.22 -8.15,-21.57 -8.16,-21.92 -8.06,-22.26 -7.95,-22.59 -7.75,-22.88 -7.55,-23.16 -7.27,-23.37 -6.98,-23.57 -6.65,-23.68 -6.31,-23.78 -5.96,-23.78 -5.61,-23.77 -5.28,-23.65 -4.95,-23.53 -4.68,-23.31 -4.41,-23.09 -4.22,-22.80 -4.03,-22.51 -3.94,-22.17 -3.85,-21.83 -3.85,-21.83 -3.85,-21.83 -3.60,-19.52 -3.34,-17.22 -2.86,-15.43 -2.39,-13.65 -2.11,-12.62 -1.82,-11.59 -1.37,-10.24 -0.91,-8.90 -0.25,-7.18 0.39,-5.45 1.30,-3.08 2.20,-0.71 2.25,-0.43 2.31,-0.16 2.29,0.11 2.28,0.39 2.20,0.66 2.12,0.93 1.98,1.17 1.83,1.41 1.64,1.61 1.44,1.81 1.20,1.95 0.97,2.10 0.70,2.18 0.43,2.27 0.16,2.29 -0.11,2.31 -0.39,2.26 -0.66,2.21 -0.92,2.10 -1.17,1.99 -1.40,1.82 -1.62,1.65 -1.79,1.43 -1.97,1.21 -2.08,0.96 -2.20,0.71 -2.20,0.71 L -2.20,0.71 Z"></path></g><g transform="translate(604.8343715862623 515.7724303636913) rotate(0 -1.9020778568599326 -10.575769844544084)" stroke="none"><path fill="#b14bf4" d="M -2.60,0 Q -2.60,0 -2.59,-1.39 -2.59,-2.78 -2.66,-4.63 -2.73,-6.49 -2.99,-7.67 -3.25,-8.86 -3.53,-10.09 -3.80,-11.32 -4.08,-12.44 -4.35,-13.55 -4.79,-14.65 -5.22,-15.76 -6.17,-17.95 -7.11,-20.15 -7.19,-20.71 -7.26,-21.26 -7.15,-21.81 -7.04,-22.36 -6.76,-22.85 -6.48,-23.33 -6.06,-23.70 -5.64,-24.07 -5.13,-24.29 -4.61,-24.51 -4.05,-24.55 -3.49,-24.59 -2.95,-24.45 -2.41,-24.32 -1.94,-24.01 -1.47,-23.71 -1.12,-23.27 -0.78,-22.83 -0.59,-22.30 -0.40,-21.77 -0.39,-21.21 -0.37,-20.66 -0.54,-20.12 -0.71,-19.59 -1.04,-19.14 -1.37,-18.68 -1.83,-18.36 -2.28,-18.04 -2.82,-17.88 -3.36,-17.72 -3.92,-17.73 -4.48,-17.75 -5.00,-17.95 -5.52,-18.15 -5.96,-18.50 -6.39,-18.85 -6.69,-19.33 -6.99,-19.80 -7.12,-20.35 -7.25,-20.89 -7.20,-21.45 -7.15,-22.01 -6.93,-22.52 -6.70,-23.03 -6.32,-23.44 -5.95,-23.86 -5.46,-24.13 -4.97,-24.40 -4.42,-24.50 -3.87,-24.61 -3.31,-24.53 -2.76,-24.45 -2.26,-24.19 -1.76,-23.94 -1.37,-23.54 -0.97,-23.14 -0.73,-22.64 -0.48,-22.14 -0.48,-22.14 -0.48,-22.14 0.39,-19.97 1.28,-17.80 1.55,-16.39 1.82,-14.98 2.11,-13.35 2.40,-11.73 2.46,-10.29 2.53,-8.86 2.63,-7.67 2.73,-6.49 2.66,-4.63 2.59,-2.78 2.59,-1.39 2.60,0 2.56,0.31 2.52,0.62 2.41,0.91 2.30,1.21 2.12,1.46 1.94,1.72 1.71,1.93 1.47,2.14 1.20,2.28 0.92,2.43 0.61,2.51 0.31,2.58 -0.00,2.58 -0.31,2.58 -0.61,2.51 -0.92,2.43 -1.20,2.28 -1.47,2.14 -1.71,1.93 -1.94,1.72 -2.12,1.46 -2.30,1.21 -2.41,0.91 -2.52,0.62 -2.56,0.31 -2.60,-0.00 -2.60,-0.00 L -2.60,0 Z"></path></g><g transform="translate(835.8125658613836 27.001231397574657) rotate(0 81.68396759033203 22.5)"><text x="81.68396759033203" y="0" font-family="Virgil, Segoe UI Emoji" font-size="36px" fill="#b14bf4" text-anchor="middle" style="white-space: pre;" direction="ltr" dominant-baseline="text-before-edge">GenProse</text></g><g transform="translate(900.0125869000177 82.73661257208721) rotate(0 -54.976410152487915 41.81498408414262)" stroke="none"><path fill="#b14bf4" d="M 1.26,0.51 Q 1.26,0.51 0.21,3.73 -0.84,6.95 -1.89,9.52 -2.95,12.09 -4.58,15.66 -6.22,19.22 -7.49,21.88 -8.75,24.53 -10.31,27.53 -11.86,30.53 -13.02,32.66 -14.18,34.79 -15.54,37.07 -16.91,39.35 -17.88,40.96 -18.85,42.56 -19.65,43.87 -20.45,45.19 -21.74,46.76 -23.03,48.34 -23.99,49.56 -24.96,50.79 -25.84,51.85 -26.72,52.92 -27.66,53.92 -28.60,54.93 -29.54,55.88 -30.48,56.82 -32.34,58.19 -34.20,59.57 -35.50,60.61 -36.79,61.66 -38.27,62.76 -39.75,63.86 -40.81,64.66 -41.87,65.45 -43.41,66.57 -44.95,67.68 -46.13,68.57 -47.31,69.46 -48.83,70.38 -50.35,71.29 -51.97,72.05 -53.59,72.80 -54.59,73.19 -55.59,73.57 -57.29,73.99 -59.00,74.42 -60.40,74.80 -61.80,75.18 -63.02,75.57 -64.24,75.96 -65.42,76.41 -66.59,76.87 -67.85,77.38 -69.10,77.89 -70.31,78.39 -71.51,78.90 -72.55,79.37 -73.59,79.84 -74.72,80.32 -75.85,80.79 -77.05,81.22 -78.25,81.65 -80.08,82.34 -81.91,83.04 -83.69,83.57 -85.47,84.10 -86.98,84.54 -88.50,84.98 -90.24,85.26 -91.99,85.53 -93.74,85.74 -95.49,85.94 -96.58,86.13 -97.67,86.31 -98.99,86.42 -100.32,86.54 -101.52,86.72 -102.73,86.91 -103.99,86.96 -105.26,87.01 -107.41,87.03 -109.55,87.04 -110.10,86.95 -110.64,86.86 -111.13,86.60 -111.62,86.34 -112.00,85.94 -112.38,85.54 -112.61,85.04 -112.84,84.54 -112.90,83.99 -112.96,83.44 -112.84,82.90 -112.73,82.36 -112.44,81.89 -112.16,81.42 -111.74,81.06 -111.31,80.70 -110.80,80.50 -110.29,80.29 -109.74,80.26 -109.19,80.23 -108.65,80.38 -108.12,80.53 -107.66,80.84 -107.21,81.15 -106.87,81.59 -106.54,82.03 -106.36,82.55 -106.19,83.07 -106.19,83.63 -106.19,84.18 -106.36,84.70 -106.54,85.22 -106.87,85.66 -107.21,86.10 -107.67,86.41 -108.12,86.72 -108.65,86.87 -109.19,87.02 -109.74,86.99 -110.29,86.96 -110.80,86.75 -111.32,86.55 -111.74,86.19 -112.16,85.83 -112.44,85.36 -112.73,84.89 -112.84,84.35 -112.96,83.81 -112.90,83.26 -112.84,82.71 -112.61,82.21 -112.38,81.71 -112.00,81.31 -111.62,80.91 -111.13,80.65 -110.64,80.39 -110.10,80.30 -109.55,80.21 -109.55,80.21 -109.56,80.21 -108.02,80.22 -106.48,80.22 -104.82,80.25 -103.17,80.28 -101.93,80.17 -100.70,80.07 -99.63,80.04 -98.56,80.00 -97.26,79.87 -95.96,79.74 -94.27,79.57 -92.57,79.40 -91.26,79.28 -89.94,79.15 -88.44,78.81 -86.94,78.46 -85.35,78.09 -83.76,77.71 -81.90,77.11 -80.04,76.52 -78.97,76.15 -77.90,75.79 -76.81,75.36 -75.72,74.92 -74.64,74.47 -73.55,74.02 -72.34,73.52 -71.13,73.01 -69.82,72.46 -68.51,71.90 -67.19,71.39 -65.88,70.88 -64.59,70.46 -63.30,70.05 -61.92,69.62 -60.55,69.19 -58.22,68.39 -55.90,67.60 -54.28,66.97 -52.66,66.34 -51.39,65.75 -50.12,65.17 -48.77,64.42 -47.42,63.68 -45.80,62.84 -44.19,61.99 -43.14,61.38 -42.10,60.76 -40.67,59.66 -39.24,58.55 -37.94,57.56 -36.65,56.56 -35.03,55.11 -33.42,53.65 -32.44,52.82 -31.47,51.99 -30.51,51.15 -29.55,50.31 -28.59,49.39 -27.64,48.47 -26.60,47.37 -25.56,46.28 -24.36,44.80 -23.16,43.31 -22.24,42.14 -21.31,40.96 -20.28,39.46 -19.24,37.97 -17.92,35.73 -16.60,33.49 -15.48,31.38 -14.35,29.26 -12.85,26.29 -11.35,23.32 -10.13,20.66 -8.91,18.01 -7.36,14.49 -5.81,10.97 -4.87,8.48 -3.94,5.99 -2.99,2.74 -2.05,-0.51 -1.96,-0.70 -1.87,-0.89 -1.75,-1.05 -1.62,-1.22 -1.45,-1.35 -1.29,-1.48 -1.10,-1.56 -0.91,-1.65 -0.70,-1.69 -0.50,-1.73 -0.29,-1.71 -0.08,-1.70 0.11,-1.64 0.31,-1.58 0.49,-1.47 0.67,-1.36 0.82,-1.22 0.97,-1.07 1.07,-0.89 1.18,-0.71 1.25,-0.51 1.31,-0.31 1.32,-0.10 1.33,0.10 1.30,0.30 1.26,0.51 1.26,0.51 L 1.26,0.51 Z"></path></g><g transform="translate(917.8291477471706 84.27799375873144) rotate(0 -19.797942980401558 121.3160339352616)" stroke="none"><path fill="#b14bf4" d="M 8.94,0 Q 8.94,0 8.91,3.03 8.87,6.06 8.85,9.46 8.82,12.86 8.80,16.46 8.79,20.06 8.77,23.47 8.76,26.88 8.75,30.50 8.74,34.12 8.66,38.40 8.59,42.68 8.25,47.55 7.92,52.42 7.17,58.18 6.42,63.94 5.29,70.55 4.16,77.16 2.91,83.77 1.67,90.37 0.48,97.17 -0.70,103.97 -2.38,113.49 -4.05,123.00 -5.47,130.06 -6.89,137.12 -8.14,142.73 -9.40,148.33 -10.44,153.02 -11.49,157.70 -12.44,162.02 -13.40,166.34 -14.79,172.53 -16.18,178.73 -17.40,183.63 -18.61,188.53 -19.86,192.69 -21.10,196.85 -22.22,200.50 -23.34,204.14 -24.36,207.28 -25.38,210.42 -26.34,213.08 -27.30,215.75 -28.21,217.99 -29.11,220.23 -29.98,222.23 -30.86,224.22 -31.65,226.04 -32.45,227.85 -33.26,229.43 -34.06,231.00 -34.82,232.40 -35.58,233.79 -36.28,235.00 -36.98,236.20 -37.69,237.20 -38.39,238.20 -40.17,240.05 -41.95,241.91 -44.20,243.37 -46.45,244.83 -46.81,244.86 -47.18,244.88 -47.53,244.79 -47.89,244.70 -48.20,244.50 -48.50,244.30 -48.73,244.01 -48.96,243.72 -49.08,243.38 -49.20,243.03 -49.21,242.67 -49.22,242.30 -49.10,241.95 -48.99,241.60 -48.78,241.31 -48.56,241.01 -48.26,240.80 -47.96,240.59 -47.61,240.48 -47.26,240.38 -46.89,240.39 -46.53,240.41 -46.18,240.54 -45.84,240.67 -45.56,240.90 -45.27,241.13 -45.08,241.44 -44.88,241.75 -44.80,242.11 -44.71,242.46 -44.75,242.83 -44.78,243.19 -44.93,243.53 -45.08,243.87 -45.32,244.14 -45.57,244.41 -45.89,244.58 -46.21,244.76 -46.57,244.83 -46.93,244.89 -47.30,244.84 -47.66,244.79 -47.99,244.62 -48.31,244.45 -48.57,244.19 -48.83,243.93 -48.99,243.60 -49.15,243.27 -49.19,242.91 -49.24,242.54 -49.17,242.18 -49.09,241.83 -48.91,241.51 -48.73,241.19 -48.45,240.95 -48.18,240.71 -47.84,240.56 -47.50,240.42 -47.50,240.42 -47.50,240.42 -46.21,239.50 -44.93,238.59 -43.90,237.71 -42.88,236.84 -41.48,235.49 -40.07,234.15 -39.27,233.09 -38.46,232.03 -37.59,230.76 -36.73,229.49 -35.84,228.09 -34.96,226.70 -34.11,224.93 -33.26,223.17 -32.41,221.21 -31.55,219.25 -30.66,217.05 -29.78,214.86 -28.83,212.23 -27.88,209.61 -26.87,206.49 -25.85,203.37 -24.73,199.74 -23.62,196.10 -22.39,192.00 -21.16,187.89 -19.96,183.02 -18.75,178.15 -17.36,171.96 -15.97,165.77 -15.01,161.45 -14.05,157.13 -13.01,152.44 -11.97,147.76 -10.72,142.18 -9.47,136.61 -8.06,129.57 -6.65,122.54 -4.98,113.03 -3.30,103.52 -2.11,96.70 -0.92,89.88 0.31,83.30 1.54,76.72 2.66,70.16 3.78,63.59 4.51,57.92 5.25,52.24 5.57,47.44 5.89,42.64 5.95,38.38 6.01,34.12 6.00,30.50 5.99,26.88 5.98,23.47 5.97,20.06 5.95,16.46 5.93,12.86 5.91,9.46 5.88,6.06 5.85,3.03 5.82,0 5.84,-0.18 5.86,-0.37 5.93,-0.54 5.99,-0.72 6.10,-0.88 6.21,-1.03 6.35,-1.16 6.49,-1.28 6.66,-1.37 6.82,-1.46 7.01,-1.50 7.19,-1.55 7.38,-1.55 7.57,-1.55 7.75,-1.50 7.93,-1.46 8.10,-1.37 8.27,-1.28 8.41,-1.16 8.55,-1.03 8.65,-0.88 8.76,-0.72 8.83,-0.54 8.89,-0.37 8.92,-0.18 8.94,0.00 8.94,0.00 L 8.94,0 Z"></path></g><g transform="translate(800.206252287088 152.57529150166897) rotate(0 -6.281222380910435 10.952716673986856)" stroke="none"><path fill="#b14bf4" d="M 2.14,1.13 Q 2.14,1.13 1.47,2.42 0.79,3.71 0.16,4.93 -0.45,6.16 -1.62,7.92 -2.78,9.69 -3.63,11.11 -4.49,12.53 -5.17,13.72 -5.84,14.91 -6.36,15.90 -6.88,16.90 -7.65,18.34 -8.41,19.79 -9.32,21.44 -10.23,23.09 -10.48,23.43 -10.73,23.77 -11.08,24.02 -11.42,24.26 -11.83,24.38 -12.24,24.50 -12.66,24.48 -13.08,24.47 -13.48,24.31 -13.87,24.16 -14.20,23.89 -14.53,23.62 -14.75,23.27 -14.97,22.91 -15.07,22.49 -15.17,22.08 -15.13,21.66 -15.09,21.24 -14.92,20.85 -14.75,20.46 -14.46,20.15 -14.17,19.84 -13.80,19.64 -13.43,19.43 -13.01,19.36 -12.60,19.28 -12.18,19.35 -11.76,19.41 -11.38,19.60 -11.00,19.79 -10.71,20.10 -10.41,20.40 -10.23,20.78 -10.05,21.16 -9.99,21.58 -9.94,22.00 -10.03,22.42 -10.11,22.83 -10.32,23.20 -10.54,23.57 -10.86,23.84 -11.17,24.12 -11.57,24.29 -11.96,24.45 -12.38,24.48 -12.80,24.51 -13.21,24.40 -13.62,24.29 -13.98,24.06 -14.33,23.83 -14.59,23.49 -14.85,23.16 -14.99,22.76 -15.13,22.36 -15.14,21.94 -15.15,21.52 -15.02,21.11 -14.89,20.71 -14.89,20.71 -14.89,20.71 -13.82,18.87 -12.74,17.04 -11.85,15.78 -10.96,14.52 -10.33,13.54 -9.70,12.57 -8.97,11.43 -8.24,10.30 -7.41,8.90 -6.59,7.49 -5.69,5.69 -4.80,3.89 -4.15,2.67 -3.50,1.44 -2.82,0.15 -2.14,-1.13 -1.98,-1.37 -1.81,-1.61 -1.59,-1.80 -1.37,-2.00 -1.11,-2.13 -0.85,-2.27 -0.57,-2.34 -0.28,-2.41 0.00,-2.41 0.29,-2.41 0.58,-2.34 0.86,-2.27 1.12,-2.13 1.38,-1.99 1.60,-1.80 1.82,-1.60 1.98,-1.36 2.15,-1.12 2.25,-0.85 2.36,-0.57 2.39,-0.28 2.43,0.00 2.39,0.29 2.35,0.58 2.25,0.85 2.14,1.13 2.14,1.13 L 2.14,1.13 Z"></path></g><g transform="translate(788.105373286135 168.8665244823294) rotate(0 7.905582173351149 5.789955790661338)" stroke="none"><path fill="#b14bf4" d="M 1.44,-1.96 Q 1.44,-1.96 2.98,-0.69 4.53,0.57 5.91,1.55 7.29,2.52 8.55,3.41 9.81,4.30 10.92,5.13 12.03,5.96 12.88,6.62 13.74,7.27 15.39,8.38 17.05,9.49 17.35,9.75 17.65,10.00 17.85,10.33 18.05,10.67 18.14,11.05 18.23,11.43 18.19,11.82 18.14,12.21 17.98,12.57 17.82,12.93 17.55,13.21 17.28,13.50 16.93,13.68 16.59,13.87 16.20,13.93 15.82,14.00 15.43,13.94 15.04,13.88 14.69,13.69 14.35,13.51 14.08,13.23 13.80,12.94 13.64,12.59 13.47,12.23 13.43,11.84 13.39,11.45 13.47,11.07 13.55,10.69 13.75,10.35 13.95,10.01 14.25,9.76 14.55,9.50 14.91,9.36 15.28,9.21 15.67,9.19 16.06,9.16 16.44,9.27 16.82,9.37 17.14,9.59 17.47,9.81 17.71,10.12 17.94,10.43 18.07,10.80 18.20,11.17 18.20,11.57 18.20,11.96 18.08,12.33 17.95,12.70 17.72,13.02 17.48,13.33 17.16,13.55 16.83,13.77 16.45,13.88 16.08,13.98 15.69,13.96 15.29,13.94 14.93,13.80 14.56,13.66 14.56,13.66 14.56,13.66 11.88,11.59 9.19,9.53 8.21,8.71 7.23,7.88 6.03,6.99 4.83,6.10 3.36,5.13 1.90,4.15 0.23,3.06 -1.44,1.96 -1.65,1.76 -1.87,1.56 -2.03,1.31 -2.19,1.07 -2.28,0.79 -2.38,0.51 -2.41,0.22 -2.43,-0.07 -2.39,-0.36 -2.35,-0.65 -2.23,-0.92 -2.12,-1.19 -1.95,-1.43 -1.77,-1.67 -1.55,-1.85 -1.32,-2.04 -1.06,-2.17 -0.79,-2.30 -0.51,-2.36 -0.22,-2.43 0.07,-2.42 0.36,-2.41 0.64,-2.33 0.93,-2.25 1.18,-2.11 1.44,-1.96 1.44,-1.96 L 1.44,-1.96 Z"></path></g><g transform="translate(867.050877653374 310.9653091633625) rotate(0 3.0668402791867493 11.01677685753424)" stroke="none"><path fill="#b14bf4" d="M 2.22,-0.18 Q 2.22,-0.18 2.31,2.37 2.40,4.93 2.86,7.20 3.31,9.46 3.89,11.36 4.47,13.25 5.08,14.63 5.68,16.01 6.19,16.99 6.71,17.97 7.23,19.39 7.76,20.81 7.91,21.10 8.07,21.39 8.12,21.72 8.17,22.04 8.11,22.37 8.06,22.69 7.90,22.98 7.74,23.27 7.50,23.50 7.26,23.72 6.96,23.86 6.66,24.00 6.33,24.03 6.00,24.06 5.68,23.99 5.36,23.92 5.08,23.75 4.80,23.57 4.59,23.32 4.37,23.07 4.25,22.76 4.13,22.45 4.12,22.12 4.10,21.79 4.19,21.48 4.28,21.16 4.47,20.89 4.66,20.62 4.92,20.42 5.19,20.22 5.50,20.12 5.81,20.01 6.14,20.02 6.47,20.02 6.78,20.13 7.10,20.23 7.36,20.43 7.62,20.64 7.80,20.91 7.99,21.18 8.07,21.50 8.16,21.82 8.14,22.15 8.12,22.48 7.99,22.79 7.87,23.09 7.65,23.34 7.44,23.59 7.15,23.76 6.87,23.93 6.55,24.00 6.22,24.07 5.90,24.03 5.57,23.99 5.27,23.85 4.97,23.71 4.73,23.48 4.50,23.25 4.50,23.25 4.50,23.25 3.76,21.40 3.02,19.55 2.64,18.44 2.27,17.34 1.75,15.83 1.22,14.33 0.51,12.31 -0.20,10.30 -0.88,7.78 -1.56,5.27 -1.89,2.72 -2.22,0.18 -2.21,-0.08 -2.20,-0.35 -2.13,-0.61 -2.05,-0.87 -1.92,-1.10 -1.78,-1.33 -1.60,-1.53 -1.41,-1.72 -1.19,-1.87 -0.96,-2.01 -0.70,-2.10 -0.45,-2.18 -0.18,-2.21 0.08,-2.23 0.35,-2.19 0.61,-2.14 0.86,-2.04 1.11,-1.93 1.32,-1.77 1.54,-1.61 1.71,-1.40 1.88,-1.19 2.00,-0.95 2.11,-0.71 2.17,-0.44 2.22,-0.18 2.22,-0.18 L 2.22,-0.18 Z"></path></g><g transform="translate(873.1845582117475 332.998862878431) rotate(0 18.95525302749013 -3.4205163557124934)" stroke="none"><path fill="#b14bf4" d="M -0.26,-2.04 Q -0.26,-2.04 2.95,-2.35 6.16,-2.66 9.98,-3.18 13.79,-3.69 17.22,-4.34 20.65,-4.98 23.41,-5.58 26.17,-6.18 28.29,-6.52 30.41,-6.85 31.71,-7.22 33.02,-7.60 35.38,-8.09 37.74,-8.57 38.02,-8.55 38.31,-8.53 38.57,-8.43 38.83,-8.32 39.04,-8.13 39.25,-7.95 39.39,-7.70 39.54,-7.46 39.59,-7.18 39.65,-6.91 39.61,-6.63 39.58,-6.34 39.46,-6.09 39.34,-5.84 39.14,-5.63 38.94,-5.43 38.69,-5.30 38.44,-5.17 38.16,-5.13 37.88,-5.09 37.60,-5.14 37.32,-5.19 37.08,-5.33 36.83,-5.46 36.64,-5.67 36.45,-5.88 36.33,-6.14 36.22,-6.39 36.19,-6.67 36.16,-6.96 36.23,-7.23 36.29,-7.51 36.44,-7.75 36.59,-7.99 36.81,-8.16 37.03,-8.34 37.29,-8.45 37.56,-8.55 37.84,-8.56 38.12,-8.57 38.39,-8.49 38.66,-8.41 38.89,-8.25 39.12,-8.09 39.29,-7.86 39.46,-7.63 39.55,-7.36 39.63,-7.09 39.63,-6.81 39.62,-6.53 39.53,-6.26 39.44,-6.00 39.26,-5.77 39.09,-5.55 38.85,-5.40 38.62,-5.24 38.34,-5.17 38.07,-5.10 38.07,-5.10 38.07,-5.10 35.89,-4.70 33.71,-4.30 32.30,-4.11 30.90,-3.93 28.88,-3.57 26.86,-3.21 24.08,-2.52 21.29,-1.83 17.80,-1.07 14.32,-0.30 10.48,0.36 6.64,1.03 3.45,1.54 0.26,2.04 0.01,2.05 -0.23,2.05 -0.47,1.99 -0.72,1.93 -0.94,1.82 -1.16,1.70 -1.35,1.54 -1.53,1.37 -1.68,1.17 -1.82,0.97 -1.91,0.73 -2.00,0.50 -2.03,0.25 -2.06,0.01 -2.03,-0.23 -2.00,-0.48 -1.92,-0.71 -1.83,-0.94 -1.69,-1.15 -1.55,-1.36 -1.36,-1.52 -1.18,-1.69 -0.96,-1.81 -0.74,-1.92 -0.50,-1.98 -0.26,-2.04 -0.26,-2.04 L -0.26,-2.04 Z"></path></g><g transform="translate(829.1071276656552 60.70808918894602) rotate(0 -138.39934735544057 22.006543019718208)" stroke="none"><path fill="#b14bf4" d="M 0,1.56 Q 0,1.56 -3.22,1.52 -6.44,1.49 -10.72,1.46 -15.00,1.44 -20.23,1.42 -25.45,1.40 -31.59,1.61 -37.73,1.82 -49.20,2.86 -60.67,3.90 -71.04,4.97 -81.41,6.04 -88.27,6.72 -95.12,7.41 -100.01,7.90 -104.90,8.39 -110.09,8.96 -115.29,9.53 -118.97,9.95 -122.66,10.37 -127.51,10.93 -132.37,11.49 -136.07,11.86 -139.77,12.24 -142.96,12.54 -146.15,12.84 -148.97,13.15 -151.79,13.47 -154.39,13.79 -156.99,14.11 -159.38,14.36 -161.77,14.61 -164.10,14.90 -166.42,15.19 -170.12,15.78 -173.81,16.36 -177.00,16.90 -180.20,17.44 -183.33,17.96 -186.45,18.49 -191.19,19.39 -195.92,20.29 -199.35,21.03 -202.78,21.78 -205.53,22.45 -208.28,23.12 -210.54,23.74 -212.80,24.36 -214.71,24.97 -216.63,25.58 -218.31,26.20 -220.00,26.81 -221.55,27.42 -223.11,28.03 -225.94,28.84 -228.77,29.65 -230.88,30.16 -232.98,30.66 -235.69,31.19 -238.40,31.73 -240.98,32.20 -243.55,32.68 -245.12,33.05 -246.68,33.43 -247.88,33.86 -249.07,34.29 -250.25,34.92 -251.43,35.56 -252.87,36.50 -254.31,37.44 -255.59,38.19 -256.87,38.95 -258.60,39.75 -260.34,40.56 -262.38,41.27 -264.42,41.98 -265.95,42.44 -267.48,42.90 -268.75,43.45 -270.01,44.00 -271.29,44.49 -272.57,44.99 -273.61,45.71 -274.66,46.43 -275.11,46.71 -275.55,46.98 -276.06,47.10 -276.56,47.22 -277.08,47.18 -277.60,47.13 -278.08,46.92 -278.56,46.71 -278.94,46.36 -279.33,46.00 -279.58,45.55 -279.83,45.09 -279.93,44.58 -280.02,44.06 -279.94,43.55 -279.87,43.03 -279.63,42.57 -279.39,42.10 -279.02,41.74 -278.65,41.37 -278.18,41.14 -277.71,40.92 -277.19,40.85 -276.67,40.79 -276.16,40.89 -275.65,40.99 -275.20,41.25 -274.75,41.52 -274.40,41.91 -274.06,42.30 -273.86,42.78 -273.66,43.26 -273.62,43.78 -273.58,44.30 -273.71,44.81 -273.84,45.31 -274.13,45.75 -274.42,46.19 -274.83,46.51 -275.24,46.83 -275.73,47.01 -276.22,47.18 -276.74,47.19 -277.26,47.20 -277.76,47.04 -278.26,46.88 -278.68,46.57 -279.10,46.27 -279.40,45.84 -279.70,45.41 -279.85,44.91 -279.99,44.41 -279.97,43.89 -279.95,43.37 -279.77,42.88 -279.58,42.39 -279.25,41.99 -278.92,41.59 -278.92,41.59 -278.92,41.59 -276.43,40.13 -273.94,38.68 -272.62,38.32 -271.29,37.97 -270.09,37.57 -268.89,37.17 -267.50,36.87 -266.11,36.57 -264.30,36.01 -262.49,35.45 -261.50,35.05 -260.51,34.65 -259.20,34.13 -257.89,33.61 -256.62,33.08 -255.35,32.55 -254.20,32.11 -253.05,31.68 -251.53,31.28 -250.01,30.89 -248.63,30.61 -247.25,30.34 -245.66,30.14 -244.08,29.93 -241.53,29.43 -238.98,28.93 -236.34,28.37 -233.70,27.81 -231.68,27.26 -229.65,26.72 -226.91,25.85 -224.16,24.98 -222.54,24.49 -220.93,24.01 -219.17,23.49 -217.42,22.97 -215.45,22.40 -213.49,21.83 -211.20,21.20 -208.91,20.57 -206.12,19.89 -203.34,19.21 -199.88,18.46 -196.41,17.71 -191.65,16.80 -186.88,15.89 -183.76,15.37 -180.64,14.85 -177.43,14.31 -174.22,13.77 -170.49,13.18 -166.75,12.58 -164.39,12.29 -162.04,11.99 -159.68,11.75 -157.32,11.50 -154.70,11.18 -152.09,10.85 -149.24,10.53 -146.39,10.21 -143.22,9.91 -140.04,9.61 -136.35,9.24 -132.67,8.87 -127.82,8.31 -122.96,7.74 -119.27,7.32 -115.58,6.90 -110.37,6.32 -105.17,5.74 -100.28,5.24 -95.39,4.74 -88.54,4.05 -81.69,3.36 -71.31,2.27 -60.92,1.19 -49.38,0.12 -37.83,-0.94 -31.64,-1.17 -25.45,-1.40 -20.23,-1.42 -15.00,-1.44 -10.72,-1.46 -6.44,-1.49 -3.22,-1.52 0,-1.56 0.18,-1.53 0.37,-1.51 0.54,-1.45 0.72,-1.38 0.88,-1.27 1.03,-1.16 1.16,-1.02 1.28,-0.88 1.37,-0.72 1.46,-0.55 1.50,-0.37 1.55,-0.18 1.55,0.00 1.55,0.18 1.50,0.37 1.46,0.55 1.37,0.72 1.28,0.88 1.16,1.02 1.03,1.16 0.88,1.27 0.72,1.38 0.54,1.45 0.37,1.51 0.18,1.53 -0.00,1.56 -0.00,1.56 L 0,1.56 Z"></path></g><g transform="translate(560.7631524065499 87.06930307433663) rotate(0 -4.298309277075191 9.964190837192291)" stroke="none"><path fill="#b14bf4" d="M 2.48,0.46 Q 2.48,0.46 2.16,2.02 1.83,3.58 1.41,4.96 0.99,6.34 0.49,7.60 -0.01,8.87 -0.49,10.28 -0.97,11.69 -1.49,12.80 -2.01,13.91 -2.43,15.02 -2.85,16.14 -3.74,17.39 -4.62,18.65 -5.00,19.55 -5.39,20.45 -5.56,20.95 -5.72,21.45 -6.04,21.87 -6.36,22.28 -6.80,22.58 -7.23,22.87 -7.74,23.01 -8.24,23.15 -8.77,23.12 -9.29,23.09 -9.78,22.90 -10.27,22.70 -10.67,22.36 -11.07,22.02 -11.34,21.57 -11.61,21.12 -11.72,20.61 -11.84,20.10 -11.78,19.57 -11.72,19.05 -11.50,18.57 -11.28,18.10 -10.92,17.72 -10.55,17.34 -10.09,17.09 -9.62,16.84 -9.11,16.76 -8.59,16.68 -8.07,16.76 -7.55,16.85 -7.09,17.09 -6.62,17.34 -6.26,17.72 -5.90,18.10 -5.68,18.58 -5.46,19.06 -5.40,19.58 -5.35,20.10 -5.46,20.62 -5.58,21.13 -5.85,21.58 -6.12,22.03 -6.52,22.37 -6.92,22.71 -7.41,22.90 -7.90,23.10 -8.42,23.12 -8.95,23.15 -9.45,23.01 -9.96,22.87 -10.39,22.57 -10.83,22.28 -11.15,21.86 -11.46,21.44 -11.63,20.94 -11.80,20.44 -11.80,19.92 -11.80,19.39 -11.80,19.39 -11.80,19.39 -10.21,16.38 -8.63,13.37 -7.91,12.57 -7.19,11.76 -6.56,10.60 -5.93,9.45 -5.32,8.17 -4.70,6.90 -4.23,5.84 -3.76,4.78 -3.38,3.72 -3.01,2.66 -2.74,1.10 -2.48,-0.46 -2.39,-0.75 -2.30,-1.04 -2.14,-1.30 -1.98,-1.56 -1.76,-1.78 -1.55,-1.99 -1.28,-2.15 -1.02,-2.31 -0.73,-2.40 -0.44,-2.48 -0.14,-2.50 0.16,-2.52 0.46,-2.46 0.76,-2.41 1.04,-2.28 1.31,-2.15 1.55,-1.96 1.79,-1.78 1.98,-1.54 2.17,-1.29 2.29,-1.02 2.41,-0.74 2.47,-0.44 2.52,-0.14 2.50,0.16 2.48,0.46 2.48,0.46 L 2.48,0.46 Z"></path></g><g transform="translate(548.9013672692157 106.95284918154061) rotate(0 12.149082703424142 0.9783558178975795)" stroke="none"><path fill="#b14bf4" d="M -1.73,-2.45 Q -1.73,-2.45 1.80,-2.38 3.61,-2.32 5.24,-2.30 6.87,-2.28 8.19,-2.31 9.51,-2.35 11.29,-2.45 13.06,-2.55 14.97,-2.27 16.89,-1.99 18.06,-1.87 19.24,-1.75 22.75,-0.75 26.25,0.24 26.47,0.60 26.70,0.96 26.79,1.37 26.89,1.78 26.85,2.20 26.81,2.62 26.63,3.00 26.46,3.38 26.18,3.69 25.89,4.00 25.52,4.20 25.15,4.40 24.74,4.48 24.33,4.55 23.91,4.49 23.49,4.43 23.12,4.23 22.75,4.04 22.45,3.74 22.16,3.44 21.98,3.06 21.80,2.68 21.75,2.26 21.70,1.84 21.78,1.43 21.87,1.02 22.08,0.66 22.29,0.29 22.61,0.02 22.93,-0.25 23.31,-0.41 23.70,-0.57 24.12,-0.60 24.54,-0.63 24.95,-0.52 25.36,-0.41 25.71,-0.18 26.06,0.04 26.32,0.37 26.58,0.71 26.71,1.10 26.85,1.50 26.86,1.92 26.86,2.34 26.73,2.74 26.60,3.14 26.35,3.48 26.10,3.82 25.76,4.06 25.41,4.30 25.01,4.42 24.61,4.53 24.19,4.52 23.77,4.50 23.37,4.35 22.98,4.20 22.66,3.93 22.33,3.66 22.33,3.66 22.33,3.66 20.46,3.41 18.58,3.17 17.46,2.98 16.34,2.80 14.70,2.67 13.06,2.55 11.28,2.45 9.51,2.35 8.19,2.31 6.87,2.28 5.24,2.30 3.61,2.32 1.80,2.38 1.73,2.45 -0.29,2.41 -0.58,2.38 -0.86,2.27 -1.14,2.17 -1.38,2.00 -1.62,1.83 -1.82,1.61 -2.01,1.39 -2.15,1.13 -2.29,0.86 -2.36,0.58 -2.43,0.29 -2.43,-0.00 -2.43,-0.29 -2.36,-0.58 -2.29,-0.87 -2.15,-1.13 -2.01,-1.39 -1.82,-1.61 -1.62,-1.83 -1.38,-2.00 -1.14,-2.17 -0.86,-2.27 -0.58,-2.38 -0.29,-2.41 0.00,-2.45 0.00,-2.45 L -1.73,-2.45 Z"></path></g><g stroke-linecap="round" transform="translate(817.9175698419127 14.363006880908756) rotate(0 103.94284217000393 33.26340887175246)"><path d="M189.55 16.06 C198.26 19.95, 203.45 25.8, 206.25 29.8 C209.05 33.79, 209.92 35.64, 206.36 40.01 C202.81 44.38, 194.39 51.95, 184.92 56 C175.46 60.05, 162.34 62.68, 149.57 64.31 C136.8 65.93, 122.1 66.07, 108.29 65.75 C94.49 65.43, 79.58 63.63, 66.76 62.39 C53.93 61.15, 41.44 61, 31.35 58.32 C21.26 55.63, 11.36 50.64, 6.22 46.29 C1.08 41.93, -0.12 37.01, 0.5 32.18 C1.12 27.36, 3.86 21.56, 9.94 17.34 C16.02 13.11, 25.73 9.76, 36.97 6.84 C48.2 3.91, 63.29 0.64, 77.36 -0.21 C91.42 -1.06, 107.39 0.51, 121.34 1.71 C135.3 2.91, 146.6 2.44, 161.08 7 C175.56 11.57, 201.64 23.16, 208.21 29.11 C214.79 35.07, 202.54 42.75, 200.53 42.72 M149.21 2.85 C162.11 4.45, 175.21 10.78, 184.52 14.03 C193.83 17.28, 200.81 18.82, 205.05 22.36 C209.3 25.9, 211.57 31.04, 209.98 35.26 C208.38 39.48, 202.99 43.39, 195.49 47.67 C187.98 51.94, 176.94 57.42, 164.95 60.9 C152.96 64.37, 137.48 68.15, 123.54 68.52 C109.61 68.89, 95.06 64.89, 81.34 63.13 C67.61 61.37, 52.51 59.93, 41.2 57.97 C29.9 56.01, 20.71 55.02, 13.51 51.38 C6.31 47.74, -0.58 40.77, -2 36.12 C-3.42 31.48, 0.33 27.78, 4.99 23.51 C9.66 19.24, 16.5 13.79, 25.99 10.48 C35.48 7.18, 48.46 5.67, 61.93 3.68 C75.41 1.69, 92.67 -1.44, 106.84 -1.46 C121.01 -1.48, 140.49 2.33, 146.96 3.54 C153.43 4.76, 146.53 5.58, 145.66 5.85" stroke="#b14bf4" stroke-width="4" fill="none"></path></g></svg>